<svg width="24" height="24" viewBox="0 0 24 24" fill="none" xmlns="http://www.w3.org/2000/svg">
<path d="M12.2375 6.61538C13.125 6.61538 14.2375 6.00509 14.9 5.19135C15.5 4.45391 15.9375 3.42403 15.9375 2.39415C15.9375 2.25429 15.925 2.11443 15.9 2C14.9125 2.03814 13.725 2.67387 13.0125 3.52575C12.45 4.17419 11.9375 5.19135 11.9375 6.23395C11.9375 6.38652 11.9625 6.5391 11.975 6.58996C12.0375 6.60267 12.1375 6.61538 12.2375 6.61538ZM9.1125 22C10.325 22 10.8625 21.1736 12.375 21.1736C13.9125 21.1736 14.25 21.9746 15.6 21.9746C16.925 21.9746 17.8125 20.7285 18.65 19.5079C19.5875 18.1093 19.975 16.7362 20 16.6726C19.9125 16.6472 17.375 15.5919 17.375 12.6294C17.375 10.061 19.375 8.90401 19.4875 8.815C18.1625 6.88239 16.15 6.83153 15.6 6.83153C14.1125 6.83153 12.9 7.74698 12.1375 7.74698C11.3125 7.74698 10.225 6.88239 8.9375 6.88239C6.4875 6.88239 4 8.94215 4 12.8328C4 15.2486 4.925 17.8042 6.0625 19.4571C7.0375 20.8557 7.8875 22 9.1125 22Z" fill="black"/>
</svg>
