<?xml version="1.0" encoding="utf-8"?>
<!-- Generated by IcoMoon.io -->
<!DOCTYPE svg PUBLIC "-//W3C//DTD SVG 1.1//EN" "http://www.w3.org/Graphics/SVG/1.1/DTD/svg11.dtd">
<svg version="1.1" xmlns="http://www.w3.org/2000/svg" xmlns:xlink="http://www.w3.org/1999/xlink" width="1792" height="64" viewBox="0 0 1792 64">
<svg id="loader-red-loader_00" width="32" height="32" viewBox="0 0 32 32" x="0" y="0">
<path d="M19.614 17.963c-0.038 1.804-1.569 3.263-3.35 3.193-1.811-0.072-3.184-1.587-3.103-3.425 0.078-1.774 1.439-3.056 3.236-3.049 1.861 0.008 3.257 1.431 3.218 3.28z"></path>
<path d="M24.314 23.328c-1.41-0.106-2.326-0.86-2.304-2.376 0.020-1.4 0.863-2.224 2.275-2.252 1.537-0.030 2.4 0.901 2.39 2.348-0.009 1.35-0.856 2.183-2.362 2.279z"></path>
</svg>
<svg id="loader-red-loader_01" width="32" height="32" viewBox="0 0 32 32" x="32" y="0">
<path d="M16.207 21.194c-1.824-0.054-3.193-1.549-3.121-3.409 0.072-1.863 1.531-3.171 3.423-3.066 1.762 0.097 3.095 1.519 3.065 3.269-0.032 1.794-1.571 3.26-3.367 3.206z"></path>
<path d="M19.56 10.508c-1.732-0.011-2.976-1.315-2.913-3.055 0.059-1.636 1.314-2.833 2.958-2.822 1.718 0.011 2.969 1.33 2.909 3.066-0.057 1.644-1.296 2.822-2.954 2.812z"></path>
<path d="M23.892 18.35c1.318 0.208 2.17 0.928 2.135 2.35-0.038 1.529-0.96 2.306-2.446 2.216-1.414-0.086-2.148-0.98-2.070-2.387 0.078-1.42 0.962-2.088 2.381-2.179z"></path>
<path d="M12.287 4.217c0.705 0.054 1.268 0.345 1.329 1.162 0.066 0.886-0.383 1.404-1.272 1.426-0.798 0.020-1.238-0.455-1.27-1.233-0.032-0.785 0.408-1.228 1.213-1.355z"></path>
</svg>
<svg id="loader-red-loader_02" width="32" height="32" viewBox="0 0 32 32" x="64" y="0">
<path d="M16.296 21.192c-1.825 0.008-3.256-1.452-3.24-3.308 0.016-1.788 1.343-3.139 3.127-3.184 1.861-0.047 3.348 1.346 3.382 3.168 0.033 1.77-1.488 3.315-3.269 3.323z"></path>
<path d="M19.358 11.124c-1.556 0.042-2.946-1.315-2.961-2.889-0.015-1.583 1.335-2.946 2.908-2.937 1.5 0.009 2.776 1.262 2.836 2.786 0.064 1.608-1.208 2.998-2.784 3.040z"></path>
<path d="M24.762 11.691c0.114-1.489 0.89-2.417 2.353-2.431 1.47-0.014 2.365 0.924 2.36 2.373-0.005 1.347-0.849 2.258-2.225 2.311-1.472 0.056-2.282-0.822-2.488-2.253z"></path>
<path d="M23.168 22.586c-1.423-0.128-2.258-0.938-2.23-2.3 0.027-1.358 0.906-2.239 2.292-2.211 1.379 0.028 2.232 0.916 2.21 2.29-0.021 1.378-0.888 2.134-2.273 2.221z"></path>
<path d="M13.88 6.314c-0.13 0.689-0.462 1.255-1.26 1.274-0.882 0.021-1.384-0.512-1.364-1.361 0.018-0.774 0.566-1.209 1.324-1.201 0.774 0.009 1.186 0.506 1.3 1.287z"></path>
</svg>
<svg id="loader-red-loader_03" width="32" height="32" viewBox="0 0 32 32" x="96" y="0">
<path d="M19.604 17.918c-0.016 1.808-1.539 3.296-3.332 3.256-1.83-0.042-3.217-1.528-3.164-3.391 0.051-1.787 1.406-3.106 3.2-3.117 1.865-0.011 3.312 1.416 3.296 3.252z"></path>
<path d="M19.067 11.621c-1.571 0.036-2.804-1.144-2.836-2.715-0.032-1.551 1.18-2.842 2.703-2.881 1.515-0.038 2.8 1.207 2.836 2.749 0.037 1.573-1.139 2.812-2.703 2.847z"></path>
<path d="M26.655 14.104c-1.396-0.106-2.291-0.856-2.267-2.363 0.022-1.397 0.86-2.202 2.256-2.23 1.526-0.030 2.365 0.886 2.348 2.337-0.015 1.352-0.834 2.17-2.338 2.256z"></path>
<path d="M5.016 11.727c-1.344-0.154-2.213-0.898-2.204-2.308 0.010-1.501 0.895-2.338 2.408-2.317 1.444 0.020 2.259 0.942 2.26 2.281 0 1.453-0.895 2.3-2.465 2.343z"></path>
<path d="M24.844 19.865c-0.089 1.475-0.828 2.283-2.126 2.324-1.393 0.043-2.298-0.753-2.298-2.187 0-1.433 0.893-2.226 2.296-2.186 1.312 0.038 2.016 0.864 2.128 2.049z"></path>
<path d="M14.038 7.143c-0.113 0.792-0.556 1.254-1.331 1.221-0.782-0.034-1.205-0.535-1.18-1.322 0.026-0.813 0.53-1.22 1.303-1.19 0.786 0.031 1.178 0.524 1.208 1.291z"></path>
</svg>
<svg id="loader-red-loader_04" width="32" height="32" viewBox="0 0 32 32" x="128" y="0">
<path d="M16.422 14.625c1.86 0.020 3.251 1.467 3.207 3.337-0.041 1.75-1.44 3.156-3.18 3.195-1.818 0.041-3.292-1.417-3.304-3.269-0.012-1.862 1.414-3.282 3.277-3.262z"></path>
<path d="M21.406 9.507c-0.019 1.487-1.193 2.639-2.695 2.644-1.498 0.005-2.685-1.14-2.717-2.62-0.033-1.541 1.244-2.796 2.797-2.75 1.48 0.044 2.634 1.246 2.616 2.727z"></path>
<path d="M28.517 11.845c-0.012 1.48-0.78 2.291-2.143 2.466-1.29 0.165-2.45-0.985-2.421-2.325 0.031-1.442 0.879-2.269 2.234-2.303 1.369-0.035 2.194 0.794 2.33 2.162z"></path>
<path d="M5.774 7.549c1.374 0.152 2.248 0.848 2.26 2.286s-0.82 2.252-2.232 2.266c-1.417 0.014-2.253-0.794-2.264-2.23s0.843-2.154 2.237-2.321z"></path>
<path d="M19.897 19.692c0.062-1.276 0.695-2.096 2.044-2.152 1.458-0.061 2.252 0.79 2.257 2.166 0.005 1.302-0.843 2.12-2.136 2.119-1.276-0.001-2.062-0.754-2.166-2.134z"></path>
<path d="M14.255 7.96c-0.153 0.706-0.55 1.228-1.335 1.184-0.764-0.043-1.24-0.564-1.214-1.314 0.026-0.76 0.544-1.217 1.32-1.192 0.789 0.026 1.165 0.536 1.23 1.323z"></path>
</svg>
<svg id="loader-red-loader_05" width="32" height="32" viewBox="0 0 32 32" x="160" y="0">
<path d="M19.854 17.704c1.444-0.749 2.698-0.788 3.512 0.689 0.55 0.999 0.294 1.989-0.633 2.634-1.516 1.056-2.573 0.172-3.47-1.016-2.758 1.587-4.763 1.326-5.766-0.726-0.83-1.699-0.049-3.776 1.681-4.466 2.004-0.8 3.707 0.202 4.676 2.886z"></path>
<path d="M15.82 9.885c0.125-1.48 1.367-2.519 2.873-2.341 1.575 0.186 2.32 1.194 2.322 2.7 0.002 1.432-1.378 2.61-2.783 2.504-1.444-0.108-2.536-1.405-2.412-2.863z"></path>
<path d="M8.211 26.124c-1.384-0.155-2.273-0.942-2.195-2.455 0.071-1.397 0.942-2.19 2.355-2.167 1.537 0.025 2.364 0.978 2.301 2.429-0.060 1.354-0.933 2.151-2.461 2.193z"></path>
<path d="M25.873 9.904c1.381 0.161 2.209 0.908 2.162 2.344-0.046 1.426-0.891 2.219-2.314 2.182-1.433-0.037-2.212-0.893-2.182-2.312 0.030-1.442 0.906-2.134 2.334-2.214z"></path>
<path d="M6.408 12.519c-1.412-0.093-2.198-0.878-2.179-2.274 0.018-1.307 0.841-2.121 2.118-2.162 1.389-0.044 2.283 0.823 2.306 2.184 0.022 1.358-0.8 2.177-2.245 2.252z"></path>
<path d="M13.179 7.442c0.743 0.079 1.251 0.437 1.225 1.255-0.025 0.797-0.532 1.237-1.289 1.206-0.655-0.026-1.103-0.449-1.14-1.155-0.043-0.817 0.418-1.207 1.204-1.307z"></path>
</svg>
<svg id="loader-red-loader_06" width="32" height="32" viewBox="0 0 32 32" x="192" y="0">
<path d="M13.18 17.621c0.062-1.278 0.759-2.394 2.27-2.894 1.513-0.5 2.757-0.024 3.706 1.206 0.413 0.534 0.5 1.262 1.574 1.008 0.965-0.228 1.8 0.368 2.13 1.399 0.266 0.832 0.112 1.609-0.55 2.192-0.785 0.692-1.784 0.896-2.542 0.166-0.784-0.755-1.238-0.196-1.864 0.080-2.26 0.994-4.666-0.488-4.724-3.157z"></path>
<path d="M17.997 13.26c-1.493-0.18-2.425-1.024-2.382-2.587 0.043-1.565 1.018-2.402 2.576-2.428 1.407-0.023 2.581 1.183 2.456 2.561-0.138 1.526-1.017 2.384-2.65 2.454z"></path>
<path d="M27.623 12.355c-0.101 1.429-0.908 2.279-2.269 2.283-1.354 0.004-2.242-0.798-2.244-2.254-0.002-1.446 0.866-2.268 2.224-2.277 1.364-0.008 2.168 0.844 2.289 2.248z"></path>
<path d="M8.921 25.762c-1.417-0.048-2.294-0.792-2.344-2.171-0.050-1.372 0.77-2.281 2.162-2.339 1.399-0.058 2.287 0.806 2.347 2.162 0.060 1.366-0.77 2.185-2.164 2.348z"></path>
<path d="M9.256 10.687c-0.117 1.38-0.784 2.169-2.125 2.204-1.346 0.036-2.167-0.753-2.218-2.023-0.056-1.383 0.785-2.252 2.204-2.241 1.318 0.010 2.010 0.822 2.139 2.060z"></path>
<path d="M12.444 13.27c-0.031 0.898-0.534 1.401-1.368 1.39-0.744-0.010-1.251-0.513-1.248-1.286 0.004-0.842 0.464-1.394 1.359-1.364 0.775 0.026 1.185 0.503 1.256 1.26z"></path>
<path d="M14.637 9.34c-0.033 0.784-0.431 1.306-1.187 1.344-0.767 0.039-1.26-0.467-1.276-1.222-0.014-0.649 0.358-1.137 1.071-1.205 0.796-0.076 1.226 0.348 1.392 1.083z"></path>
</svg>
<svg id="loader-red-loader_07" width="32" height="32" viewBox="0 0 32 32" x="224" y="0">
<path d="M13.186 17.594c0.075-1.171 0.693-2.208 1.958-2.788 1.36-0.622 2.643-0.367 3.664 0.665 0.608 0.614 1.076 1.175 2.060 1.298 1.144 0.142 1.675 1.097 1.47 2.218-0.219 1.198-1.114 2.001-2.283 1.658-1.024-0.3-1.754 0.024-2.623 0.306-2.105 0.684-4.255-0.943-4.247-3.356z"></path>
<path d="M17.775 13.811c-1.483-0.161-2.363-0.974-2.359-2.458 0.004-1.494 0.935-2.324 2.38-2.436 1.348-0.105 2.622 1.22 2.479 2.562-0.154 1.453-1.027 2.248-2.5 2.332z"></path>
<path d="M24.806 14.834c-1.397-0.185-2.186-0.962-2.121-2.391 0.060-1.332 0.849-2.086 2.19-2.086 1.449 0 2.274 0.872 2.26 2.247-0.013 1.384-0.899 2.15-2.33 2.231z"></path>
<path d="M7.142 23.142c0.123-1.279 0.826-2.049 2.168-2.052s2.161 0.798 2.18 2.085c0.021 1.393-0.844 2.254-2.264 2.204-1.304-0.046-2.031-0.845-2.084-2.237z"></path>
<path d="M7.609 9.113c1.472 0.1 2.231 0.87 2.207 2.165-0.022 1.192-0.748 1.983-2.011 2.012-1.34 0.030-2.152-0.708-2.18-2.033-0.028-1.333 0.808-2.004 1.984-2.144z"></path>
<path d="M11.682 15.119c-0.807-0.162-1.338-0.516-1.329-1.319 0.010-0.883 0.534-1.384 1.387-1.319 0.748 0.056 1.171 0.576 1.142 1.365-0.030 0.814-0.581 1.114-1.2 1.273z"></path>
<path d="M14.802 10.375c-0.13 0.729-0.623 1.152-1.376 1.044-0.636-0.092-1.081-0.55-1.015-1.264 0.076-0.811 0.618-1.17 1.377-1.077 0.672 0.082 1.042 0.53 1.014 1.297z"></path>
</svg>
<svg id="loader-red-loader_08" width="32" height="32" viewBox="0 0 32 32" x="256" y="0">
<path d="M16.474 14.25c-0.869-0.682-1.337-1.519-1.389-2.607-0.81 0.527-1.602 0.992-2.275-0.028-0.319-0.484-0.267-1.087 0.192-1.457 1.010-0.813 1.667 0.036 2.305 0.651 1.809-1.474 3.192-1.516 4.146-0.174 0.981 1.38 0.438 2.678-1.707 3.976 1.088 0.513 1.633 1.666 2.908 1.985 0.916 0.229 1.184 1.178 1.030 2.134-0.147 0.909-0.749 1.419-1.59 1.568-0.706 0.126-1.396 0.136-2.099 0.448-1.959 0.869-3.871 0.069-4.586-1.781-0.678-1.754 0.15-3.466 2.092-4.316 0.299-0.13 0.604-0.248 0.972-0.398z"></path>
<path d="M24.568 15.002c-1.419-0.091-2.308-0.768-2.329-2.2-0.021-1.423 0.845-2.25 2.214-2.27 1.288-0.019 2.142 0.813 2.214 2.087 0.077 1.383-0.75 2.182-2.099 2.383z"></path>
<path d="M11.951 22.913c-0.167 1.32-0.89 2.133-2.195 2.119-1.206-0.013-2.015-0.788-2.051-1.996-0.039-1.295 0.733-2.157 2.050-2.193 1.325-0.036 2.003 0.821 2.196 2.070z"></path>
<path d="M8.239 13.704c-1.212-0.155-1.926-0.819-1.884-2.093 0.042-1.264 0.802-1.996 2.025-1.974 1.326 0.024 2.088 0.848 2.012 2.192-0.071 1.265-0.892 1.845-2.154 1.876z"></path>
<path d="M13.351 14.304c-0.092 0.763-0.542 1.218-1.287 1.184-0.727-0.033-1.242-0.508-1.231-1.26 0.012-0.844 0.561-1.336 1.398-1.269 0.745 0.060 1.13 0.576 1.12 1.345z"></path>
</svg>
<svg id="loader-red-loader_09" width="32" height="32" viewBox="0 0 32 32" x="288" y="0">
<path d="M14.092 15.108c0.588 0.060 0.95-0.356 1.45-0.676-0.338-0.73-0.308-1.662-1.613-1.517-0.744 0.083-1.22-0.556-1.049-1.342 0.168-0.773 0.757-1.017 1.526-0.858 0.415 0.086 0.705 0.659 1.247 0.265 1.272-0.924 2.513-0.914 3.461 0.416 0.902 1.266 0.304 2.376-0.7 3.284 0.384 0.864 1.1 1.197 1.744 1.65 1.465 1.030 1.333 2.628-0.241 3.479-0.229 0.124-0.543 0.113-0.743 0.264-1.661 1.253-3.374 1.673-5.011 0.074-1.665-1.627-0.949-3.379-0.029-5.080l-0.042 0.040z"></path>
<path d="M23.84 10.742c1.454 0.062 2.271 0.769 2.332 2.083 0.065 1.406-0.724 2.308-2.147 2.335-1.431 0.026-2.247-0.874-2.229-2.264 0.016-1.3 0.83-2.037 2.045-2.154z"></path>
<path d="M10.311 20.659c1.29 0.102 2.018 0.822 1.997 2.038-0.020 1.227-0.835 1.992-2.045 1.966-1.202-0.026-1.965-0.768-1.943-2.043 0.022-1.28 0.784-1.883 1.991-1.961z"></path>
<path d="M11.020 12.162c-0.148 1.176-0.764 1.944-2.050 1.922-1.176-0.021-1.859-0.709-1.909-1.864-0.055-1.269 0.697-2.048 1.91-2.082 1.223-0.034 1.929 0.737 2.049 2.024z"></path>
<path d="M14.135 15.066c-0.118 0.048-0.271 0.064-0.348 0.149-0.737 0.804-1.513 1.103-2.246 0.052-0.45-0.646-0.245-1.336 0.431-1.65 1.114-0.515 1.713 0.061 1.929 1.167 0.023 0.117 0.121 0.22 0.188 0.325 0.003-0.002 0.046-0.044 0.046-0.044z"></path>
</svg>
<svg id="loader-red-loader_10" width="32" height="32" viewBox="0 0 32 32" x="320" y="0">
<path d="M14.962 14.782c0.119-0.924-0.467-0.998-1.070-1.125-0.633-0.134-0.809-0.628-0.761-1.22 0.043-0.537 0.392-1.010 0.862-0.911 1.040 0.218 1.924-0.334 2.886-0.385 1.883-0.099 2.575 1.44 1.79 3.964 1.048 1.075 2.747 1.972 1.316 3.914-1.495 2.029-3.203 2.656-4.942 1.81-0.826-0.401-1.447-1.023-1.676-1.883-0.32-1.2-0.035-2.581-1.354-3.442-0.321-0.21-0.136-0.88 0.226-1.258 0.371-0.387 0.832-0.345 1.303-0.276 0.551 0.080 0.566 0.947 1.421 0.811z"></path>
<path d="M23.598 15.324c-1.45-0.072-2.264-0.865-2.244-2.24 0.018-1.281 0.858-2.122 2.144-2.12 1.364 0.003 2.218 0.799 2.192 2.242-0.024 1.339-0.81 2.007-2.092 2.118z"></path>
<path d="M10.776 20.391c1.213 0.171 1.985 0.84 1.938 2.067-0.043 1.122-0.8 1.839-1.928 1.839-1.122 0-1.884-0.697-1.932-1.831-0.053-1.24 0.722-1.892 1.922-2.075z"></path>
<path d="M11.62 12.594c-0.137 1.14-0.712 1.866-1.912 1.882-1.309 0.018-2.014-0.764-1.968-1.991 0.043-1.13 0.773-1.828 1.976-1.79 1.193 0.038 1.777 0.748 1.904 1.899z"></path>
<path d="M22.224 28.442c0.847 0.167 1.331 0.614 1.258 1.381-0.062 0.656-0.516 1.071-1.233 1.040-0.827-0.037-1.187-0.522-1.131-1.312 0.051-0.723 0.562-0.984 1.106-1.108z"></path>
</svg>
<svg id="loader-red-loader_11" width="32" height="32" viewBox="0 0 32 32" x="352" y="0">
<path d="M18.174 20.995c1.793 1.298 2.222 2.5 1.268 3.757-0.858 1.131-2.002 1.282-3.184 0.59-1.329-0.778-1.378-2.075-0.21-4.020-1.92-0.604-2.51-1.962-3.103-3.88-0.544-1.758 0.012-3.029 0.46-4.333 0.505-1.465 2.265-1.032 3.47-1.198 1.116-0.154 1.902 0.795 1.843 1.908-0.051 0.953 0.256 1.566 0.789 2.293 1.029 1.404 0.563 2.883-1.334 4.884z"></path>
<path d="M25.26 13.061c-0.034 1.548-0.759 2.38-2.043 2.453-1.411 0.081-2.299-0.798-2.301-2.182-0.002-1.27 0.78-2.118 2.135-2.144 1.362-0.026 2.004 0.812 2.21 1.874z"></path>
<path d="M10.286 11.156c1.2 0.101 1.876 0.75 1.861 1.927-0.014 1.077-0.631 1.749-1.747 1.788-1.203 0.043-1.928-0.619-1.962-1.785-0.034-1.17 0.689-1.809 1.847-1.93z"></path>
<path d="M11.296 23.985c-1.208-0.232-1.895-0.839-1.824-2.025 0.064-1.083 0.714-1.688 1.793-1.686 1.179 0.002 1.873 0.699 1.857 1.841-0.017 1.15-0.82 1.702-1.826 1.87z"></path>
<path d="M23.168 28.962c-0.086 0.786-0.54 1.245-1.308 1.214-0.662-0.026-1.106-0.434-1.122-1.158s0.416-1.161 1.068-1.216c0.759-0.064 1.234 0.388 1.362 1.16z"></path>
</svg>
<svg id="loader-red-loader_12" width="32" height="32" viewBox="0 0 32 32" x="384" y="0">
<path d="M18.637 20.68c1.097 1.111 1.722 2.316 0.651 3.715-0.743 0.972-1.827 1.15-2.861 0.611-1.55-0.809-1.497-2.17-0.931-3.584-2.83-1.745-3.045-4.249-1.895-7.562 0.395-1.138 1.637-1 2.528-1.294 0.729-0.24 1.624 0.139 1.834 0.849 0.366 1.238 1.273 2.133 1.742 3.281 0.644 1.576-0.151 2.789-1.068 3.984z"></path>
<path d="M22.8 15.686c-1.477-0.075-2.288-0.817-2.312-2.091-0.026-1.386 0.84-2.237 2.24-2.19 1.283 0.043 2.082 0.835 2.059 2.167s-0.851 1.979-1.987 2.114z"></path>
<path d="M12.8 13.596c-0.214 1.119-0.844 1.774-2.035 1.662-1.092-0.103-1.644-0.79-1.598-1.868 0.047-1.101 0.756-1.726 1.786-1.714 1.137 0.013 1.763 0.749 1.847 1.92z"></path>
<path d="M13.572 21.808c-0.173 1.049-0.734 1.765-1.829 1.745-1.078-0.020-1.746-0.684-1.734-1.782s0.696-1.748 1.773-1.743c1.094 0.005 1.642 0.729 1.789 1.78z"></path>
<path d="M21.41 27.11c0.807 0.002 1.284 0.339 1.358 1.027 0.085 0.792-0.391 1.307-1.142 1.348-0.764 0.041-1.246-0.43-1.242-1.238 0.003-0.726 0.462-1.050 1.027-1.137z"></path>
</svg>
<svg id="loader-red-loader_13" width="32" height="32" viewBox="0 0 32 32" x="416" y="0">
<path d="M17.272 24.805c-1.179-0.123-2.188-0.798-2.124-2.216 0.049-1.084-0.353-1.623-1.108-2.293-1.544-1.372-1.208-5.25 0.461-6.446 1.1-0.789 2.112-0.882 3.178 0.232 1.691 1.766 3.261 3.465 1.438 6.039-0.441 0.623 0.308 0.92 0.46 1.383 0.546 1.654-0.471 3.264-2.305 3.301z"></path>
<path d="M24.38 13.674c-0.144 1.333-0.856 2.182-2.156 2.199-1.295 0.017-2.16-0.794-2.17-2.107-0.009-1.292 0.769-2.133 2.108-2.159 1.35-0.026 2.004 0.832 2.218 2.067z"></path>
<path d="M13.329 14.009c-0.044 0.929-0.545 1.616-1.658 1.652-1.092 0.036-1.737-0.549-1.784-1.647-0.047-1.1 0.565-1.758 1.64-1.794 1.058-0.036 1.722 0.531 1.802 1.79z"></path>
<path d="M13.984 21.454c-0.17 1.050-0.678 1.718-1.698 1.724-1.13 0.006-1.744-0.716-1.697-1.786 0.043-0.99 0.706-1.567 1.736-1.529 1.040 0.038 1.497 0.713 1.658 1.592z"></path>
<path d="M19.976 27.576c0.161-0.843 0.612-1.254 1.376-1.182 0.672 0.063 1.061 0.497 1.048 1.181-0.015 0.775-0.46 1.224-1.232 1.2-0.779-0.025-1.108-0.558-1.192-1.199z"></path>
</svg>
<svg id="loader-red-loader_14" width="32" height="32" viewBox="0 0 32 32" x="448" y="0">
<path d="M14.188 14.652c1.748-1.39 3.23-0.381 4.527 0.61 1.276 0.976 1.561 2.421 0.908 3.96-0.227 0.535-0.434 0.975-0.218 1.668 0.569 1.827-0.131 3.112-1.627 3.412-1.463 0.294-2.517-0.703-2.761-2.598-0.032-0.247-0.107-0.489-0.268-1.204-0.536 1.406-0.936 2.556-2.36 2.265-0.72-0.147-1.163-0.646-1.217-1.394-0.094-1.302 0.828-1.67 1.996-1.938-0.204-1.031-0.395-2.072 0.138-3.249-1.31-0.14-2.754-0.12-2.75-1.84 0.002-0.777 0.437-1.401 1.28-1.569 1.492-0.298 1.954 0.764 2.354 1.876z"></path>
<path d="M21.82 16.052c-1.337-0.091-2.168-0.785-2.187-2.112-0.019-1.343 0.823-2.107 2.144-2.112 1.244-0.005 2.036 0.779 2.085 1.983 0.052 1.298-0.711 2.085-2.042 2.241z"></path>
<path d="M20.818 25.635c0.675 0.066 1.151 0.382 1.211 1.088 0.068 0.791-0.311 1.281-1.134 1.319-0.71 0.033-1.175-0.368-1.24-1.037-0.076-0.778 0.415-1.213 1.164-1.37z"></path>
</svg>
<svg id="loader-red-loader_15" width="32" height="32" viewBox="0 0 32 32" x="480" y="0">
<path d="M14.699 21.813c-0.874 0.54-1.809 1.105-2.62 0.066-0.804-1.032-0.067-1.617 0.595-2.488 0.533-0.7 0.843-2.173-0.385-2.982-0.988-0.65-1.47-1.444-0.719-2.465 0.801-1.089 1.858-1.053 2.648 0.002 0.565 0.753 1.195 0.349 1.79 0.362 2.952 0.069 4.493 2.124 3.618 4.91-0.158 0.502-0.313 0.917-0.135 1.499 0.395 1.294 0.010 2.402-1.324 2.926-1.417 0.556-2.433-0.018-3.092-1.334-0.084-0.168-0.23-0.305-0.378-0.496z"></path>
<path d="M2.341 17.366c0.172-1.317 0.895-2.178 2.32-2.189 1.54-0.012 2.377 0.923 2.362 2.384-0.014 1.385-0.921 2.269-2.302 2.268-1.47-0.001-2.306-0.881-2.38-2.463z"></path>
<path d="M21.275 16.238c-1.251-0.166-2.11-0.806-2.064-2.162 0.044-1.321 0.862-2.083 2.174-2.052 1.228 0.029 1.96 0.811 1.988 2.031 0.030 1.336-0.772 2.030-2.097 2.183z"></path>
<path d="M19.26 26.185c0.108-0.758 0.537-1.252 1.31-1.221 0.661 0.027 1.116 0.444 1.111 1.167-0.005 0.81-0.455 1.236-1.256 1.208-0.707-0.024-1.051-0.484-1.165-1.154z"></path>
</svg>
<svg id="loader-red-loader_16" width="32" height="32" viewBox="0 0 32 32" x="512" y="0">
<path d="M18.654 14.916c0.131-1.602 0.666-2.84 2.53-2.615 1.168 0.14 1.779 0.93 1.696 2.086-0.134 1.873-1.443 2.172-3.137 1.942 0.589 1.838-0.24 3.459-0.274 5.163-0.034 1.703-2.305 2.443-3.694 1.324-0.628-0.506-1.072-0.935-2.028-0.826-1.212 0.14-1.782-0.86-1.298-1.845 0.724-1.472 0.665-2.71-0.247-4.010-0.374-0.533-0.35-1.155 0.026-1.689 0.415-0.589 0.993-0.84 1.738-0.664 1.537 0.363 3.135 0.464 4.687 1.134z"></path>
<path d="M8.059 17.477c-0.152 1.505-1.007 2.367-2.468 2.33-1.459-0.038-2.382-0.964-2.341-2.438 0.041-1.463 0.961-2.342 2.456-2.308 1.498 0.034 2.26 0.939 2.352 2.417z"></path>
<path d="M20.596 24.314c0.319 0.022 0.721 0.413 0.732 1.115 0.012 0.802-0.46 1.284-1.233 1.241-0.762-0.042-1.222-0.581-1.135-1.354 0.074-0.662 0.522-1.058 1.636-1.002z"></path>
</svg>
<svg id="loader-red-loader_17" width="32" height="32" viewBox="0 0 32 32" x="544" y="0">
<path d="M18.111 14.59c0.474-1.207 1.035-2.41 2.642-2.123 1.008 0.18 1.639 0.85 1.686 1.94 0.072 1.684-1.178 2.039-2.489 2.33 0.229 1.483-0.446 2.788-0.475 4.192-0.016 0.754-0.538 1.369-1.239 1.706-1.389 0.668-2.29-0.558-3.41-0.836-1.574-0.391-2.256-0.708-1.784-2.449 0.21-0.776-0.124-1.694-0.188-2.55-0.175-2.305 0.761-3.12 3.058-2.67 0.716 0.14 1.428 0.298 2.2 0.461z"></path>
<path d="M6.654 19.828c-1.444-0.096-2.336-0.866-2.508-2.322-0.158-1.339 1.052-2.618 2.408-2.656 1.326-0.037 2.649 1.211 2.548 2.532-0.111 1.448-0.958 2.281-2.448 2.446z"></path>
<path d="M19.908 25.98c-0.748-0.009-1.2-0.398-1.276-1.058-0.088-0.758 0.286-1.292 1.106-1.354 0.722-0.055 1.162 0.375 1.241 1.030 0.092 0.763-0.338 1.242-1.072 1.382z"></path>
</svg>
<svg id="loader-red-loader_18" width="32" height="32" viewBox="0 0 32 32" x="576" y="0">
<path d="M16.869 22.446c-0.998-0.777-2.845-0.628-3.501-2.41-0.71-1.927-0.478-5.186 0.777-5.483 2.078-0.492 4.078-1.086 6.106-1.74 1.342-0.433 2.516 2.109 1.326 2.949-1.792 1.265-1.683 3.068-2.155 4.748-0.324 1.152-1.038 1.816-2.552 1.937z"></path>
<path d="M10.090 17.234c-0.118 1.616-0.962 2.54-2.517 2.534-1.548-0.006-2.484-0.905-2.471-2.495 0.013-1.57 0.909-2.484 2.48-2.485 1.578-0.001 2.376 0.944 2.508 2.446z"></path>
<path d="M19.388 22.804c0.863 0.131 1.325 0.604 1.263 1.355-0.052 0.638-0.486 1.092-1.212 1.066-0.827-0.030-1.194-0.522-1.144-1.303 0.045-0.703 0.52-1.018 1.093-1.118z"></path>
</svg>
<svg id="loader-red-loader_19" width="32" height="32" viewBox="0 0 32 32" x="608" y="0">
<path d="M12.83 17.816c0.015-2.429 1.312-3.65 3.835-3.496 0.66 0.040 0.914-0.303 1.277-0.704 0.913-1.005 1.989-1.114 2.963-0.156s0.984 2.191-0.127 2.926c-1.1 0.728-0.644 1.783-0.986 2.647-0.602 1.519-1.054 3.18-3.187 2.865-2.062-0.304-3.786-2.26-3.775-4.083z"></path>
<path d="M11.152 17.062c-0.011 1.608-1.263 2.822-2.725 2.7-1.536-0.127-2.417-0.998-2.45-2.572-0.031-1.488 1.183-2.632 2.682-2.534 1.582 0.102 2.312 1.083 2.493 2.406z"></path>
<path d="M19.132 24.514c-0.645-0.018-1.124-0.302-1.194-1.025-0.076-0.797 0.34-1.322 1.11-1.35 0.753-0.027 1.263 0.456 1.263 1.238-0 0.692-0.454 1.063-1.179 1.137z"></path>
</svg>
<svg id="loader-red-loader_20" width="32" height="32" viewBox="0 0 32 32" x="640" y="0">
<path d="M16.609 21.545c-1.501-0.265-2.882-0.781-3.515-2.451-0.68-1.793-0.132-3.863 1.105-4.496 1.548-0.792 3.542-1.336 5.393-1.348 1.166-0.008 1.896 1.272 1.316 2.376-0.595 1.133-0.826 2.306-1.186 3.48-0.486 1.585-1.712 2.478-3.112 2.438z"></path>
<path d="M12.11 17.078c0.029 1.506-1.071 2.649-2.572 2.673-1.481 0.024-2.68-1.116-2.707-2.573-0.026-1.405 1.203-2.684 2.612-2.719 1.436-0.035 2.639 1.147 2.667 2.619z"></path>
<path d="M19.973 22.678c-0.112 0.762-0.588 1.224-1.338 1.16-0.634-0.053-1.095-0.483-1.068-1.213 0.030-0.825 0.516-1.208 1.3-1.144 0.68 0.056 1.059 0.482 1.106 1.196z"></path>
</svg>
<svg id="loader-red-loader_21" width="32" height="32" viewBox="0 0 32 32" x="672" y="0">
<path d="M13.264 16.075c0.497-1.561 1.237-2.464 2.831-1.918 0.714 0.244 1.083-0.382 1.586-0.646 0.821-0.43 1.56-0.28 2.224 0.268 0.62 0.51 0.928 1.296 0.573 1.971-0.749 1.423-0.091 3.247-1.362 4.484-0.342 0.333-0.085 0.563 0.12 0.821 0.641 0.802 0.498 1.552-0.378 1.976-0.81 0.392-1.425-0.042-1.652-0.888-0.11-0.41-0.15-0.754-0.702-0.748-1.808 0.020-2.907-1.054-3.638-2.559-2.207 1.237-3.791 1.138-4.662-0.294-0.804-1.32-0.59-2.573 0.57-3.58 1.233-1.070 2.67-0.735 4.488 1.114z"></path>
</svg>
<svg id="loader-red-loader_22" width="32" height="32" viewBox="0 0 32 32" x="704" y="0">
<path d="M13.198 19.504c-0.821 0.065-1.552 0.234-2.256 0.156-1.54-0.172-2.527-1.628-2.194-3.203 0.345-1.633 1.549-2.586 3.046-2.090 1.972 0.653 3.582-0.362 5.309-0.652 2.054-0.345 2.848 0.221 2.986 2.369 0.123 1.92-0.769 3.578-0.917 5.407-0.065 0.809-0.952 1.272-1.456 0.832-1.397-1.218-3.699-0.91-4.518-2.818z"></path>
</svg>
<svg id="loader-red-loader_23" width="32" height="32" viewBox="0 0 32 32" x="736" y="0">
<path d="M20.067 17.794c-0.149 1.552-0.716 3.059-1.86 3.67-1.195 0.639-2.792 0.046-3.9-0.825-0.774-0.608-1.485-0.886-2.448-1.016-1.624-0.219-2.374-1.37-2.264-2.992 0.103-1.521 1.542-2.864 3.015-2.489 1.313 0.334 2.49-0.086 3.7-0.162 2.861-0.179 2.883-0.284 3.503 2.541 0.099 0.45 0.182 0.905 0.255 1.272z"></path>
</svg>
<svg id="loader-red-loader_24" width="32" height="32" viewBox="0 0 32 32" x="768" y="0">
<path d="M15.304 13.979c3.2 0.035 4.488 0.961 4.715 3.433 0.14 1.529-0.41 2.756-1.765 3.509-1.332 0.741-2.687 0.644-3.94-0.221-0.591-0.407-1.076-0.9-1.823-1.135-1.521-0.478-2.279-1.665-1.972-3.231 0.301-1.536 1.359-2.378 2.996-2.356 0.596 0.008 1.193 0.001 1.79 0.001z"></path>
</svg>
<svg id="loader-red-loader_25" width="32" height="32" viewBox="0 0 32 32" x="800" y="0">
<path d="M20.055 17.775c0.014 2.065-1.6 3.683-3.64 3.651-2.016-0.032-5.050-2.808-5.056-4.629-0.006-1.682 1.302-2.918 3.087-2.918 3.62 0.001 5.592 1.37 5.609 3.896z"></path>
</svg>
<svg id="loader-red-loader_26" width="32" height="32" viewBox="0 0 32 32" x="832" y="0">
<path d="M20.066 17.77c0.019 2.062-1.612 3.704-3.65 3.673-2.054-0.031-4.048-2.284-4.109-4.642-0.044-1.708 1.265-3.096 2.941-3.12 2.555-0.036 4.797 1.866 4.818 4.089z"></path>
</svg>
<svg id="loader-red-loader_27" width="32" height="32" viewBox="0 0 32 32" x="864" y="0">
<path d="M20.079 17.84c-0.020 2.058-1.697 3.685-3.726 3.613-1.937-0.069-3.525-1.699-3.542-3.637-0.023-2.503 1.474-4.3 3.525-4.231 1.882 0.064 3.763 2.202 3.743 4.255z"></path>
</svg>
<svg id="loader-red-loader_28" width="32" height="32" viewBox="0 0 32 32" x="896" y="0">
<path d="M20.084 17.866c-0.032 2.044-1.695 3.666-3.705 3.613-1.996-0.053-3.624-1.768-3.581-3.773 0.052-2.415 1.454-4.113 3.408-4.124s3.911 2.151 3.878 4.284z"></path>
<path d="M25.046 19.14c1.555 0.121 2.412 0.974 2.374 2.447-0.036 1.387-0.95 2.262-2.329 2.242-1.459-0.022-2.372-0.891-2.319-2.428 0.049-1.426 0.932-2.122 2.274-2.26z"></path>
</svg>
<svg id="loader-red-loader_29" width="32" height="32" viewBox="0 0 32 32" x="928" y="0">
<path d="M20.097 17.739c0.032 2.048-1.57 3.73-3.585 3.766-1.998 0.036-3.693-1.622-3.728-3.645-0.042-2.459 1.456-4.3 3.479-4.276 1.889 0.022 3.802 2.095 3.834 4.155z"></path>
<path d="M22.86 6.658c-0.010 1.706-1.299 2.995-3.008 3.007-1.699 0.012-3.039-1.277-3.074-2.957-0.037-1.754 1.37-3.161 3.122-3.122 1.684 0.038 2.97 1.371 2.96 3.072z"></path>
<path d="M24.561 19.042c1.485 0.131 2.325 0.856 2.306 2.298-0.018 1.426-0.857 2.252-2.26 2.241-1.399-0.011-2.229-0.846-2.233-2.272-0.004-1.455 0.894-2.12 2.186-2.267z"></path>
</svg>
<svg id="loader-red-loader_30" width="32" height="32" viewBox="0 0 32 32" x="960" y="0">
<path d="M16.306 13.584c1.94 0.048 3.822 2.259 3.744 4.397-0.074 2.019-1.776 3.632-3.762 3.565-2.007-0.068-3.576-1.736-3.551-3.777 0.030-2.449 1.553-4.234 3.57-4.184z"></path>
<path d="M22.555 7.030c0.021 1.641-1.19 2.932-2.815 3.002-1.721 0.074-3.064-1.197-3.086-2.922-0.021-1.688 1.355-3.083 3.005-3.046 1.57 0.035 2.876 1.372 2.896 2.966z"></path>
<path d="M24.241 23.358c-1.37-0.094-2.249-0.745-2.266-2.19-0.017-1.444 0.875-2.236 2.215-2.244 1.249-0.008 2.128 0.77 2.188 2.086 0.064 1.408-0.75 2.168-2.136 2.349z"></path>
</svg>
<svg id="loader-red-loader_31" width="32" height="32" viewBox="0 0 32 32" x="992" y="0">
<path d="M20.020 18.122c-0.134 2.004-1.911 3.572-3.9 3.439-2.094-0.14-3.608-1.947-3.426-4.090 0.199-2.346 1.768-3.99 3.708-3.883 1.907 0.104 3.759 2.425 3.618 4.534z"></path>
<path d="M19.455 10.409c-1.589 0.044-2.957-1.229-3.011-2.803-0.054-1.566 1.246-2.922 2.841-2.964 1.597-0.042 2.968 1.229 3.016 2.796 0.048 1.563-1.259 2.927-2.846 2.971z"></path>
<path d="M21.542 20.887c0.147-1.261 0.851-2.058 2.164-2.068 1.331-0.010 2.134 0.838 2.153 2.102 0.020 1.372-0.834 2.264-2.243 2.206-1.282-0.053-2.005-0.872-2.074-2.239z"></path>
<path d="M13.25 4.325c-0.020 0.718-0.433 1.156-1.098 1.183-0.764 0.031-1.285-0.442-1.284-1.219 0-0.794 0.528-1.204 1.312-1.153 0.701 0.045 1.062 0.478 1.070 1.189z"></path>
</svg>
<svg id="loader-red-loader_32" width="32" height="32" viewBox="0 0 32 32" x="1024" y="0">
<path d="M20.005 17.925c-0.034 2.017-1.71 3.665-3.718 3.658-2.014-0.007-3.657-1.658-3.672-3.691-0.018-2.43 1.698-4.398 3.755-4.306 1.815 0.081 3.67 2.294 3.634 4.338z"></path>
<path d="M21.982 7.882c0.042 1.499-1.203 2.834-2.709 2.907-1.526 0.074-2.837-1.116-2.926-2.653-0.096-1.661 1.119-2.967 2.77-2.978 1.545-0.011 2.822 1.204 2.865 2.724z"></path>
<path d="M25.314 20.971c-0.181 1.231-0.875 1.933-2.143 1.88-1.372-0.058-2.083-0.877-1.988-2.218 0.097-1.366 0.979-2.008 2.316-1.877 1.284 0.125 1.801 0.98 1.815 2.215z"></path>
<path d="M13.414 4.762c-0.158 0.76-0.57 1.256-1.352 1.162-0.755-0.091-1.172-0.631-1.081-1.384 0.079-0.656 0.53-1.054 1.229-1.030 0.804 0.028 1.148 0.522 1.204 1.252z"></path>
</svg>
<svg id="loader-red-loader_33" width="32" height="32" viewBox="0 0 32 32" x="1056" y="0">
<path d="M16.235 13.583c1.848 0.005 3.714 2.111 3.749 4.231 0.034 2.086-1.728 3.832-3.811 3.777-2.001-0.053-3.655-1.776-3.624-3.774 0.035-2.258 1.761-4.24 3.686-4.234z"></path>
<path d="M27.913 8.977c1.694 0.049 2.965 1.387 2.944 3.099-0.021 1.682-1.37 3.044-3.019 3.051-1.72 0.007-3.125-1.476-3.056-3.225 0.066-1.669 1.462-2.974 3.132-2.925z"></path>
<path d="M21.632 8.413c-0.009 1.53-1.288 2.792-2.79 2.751-1.513-0.042-2.802-1.374-2.668-2.882 0.142-1.605 1.088-2.542 2.702-2.639 1.5-0.090 2.764 1.238 2.756 2.77z"></path>
<path d="M24.838 20.491c-0.095 1.355-0.795 2.142-1.985 2.162-1.28 0.023-2.113-0.732-2.080-2.102 0.030-1.272 0.832-1.94 2.036-1.938 1.232 0.002 1.883 0.777 2.029 1.878z"></path>
<path d="M13.565 5.108c-0.111 0.73-0.51 1.242-1.286 1.235-0.792-0.007-1.197-0.524-1.177-1.303 0.018-0.702 0.43-1.106 1.133-1.129 0.788-0.026 1.22 0.402 1.33 1.197z"></path>
</svg>
<svg id="loader-red-loader_34" width="32" height="32" viewBox="0 0 32 32" x="1088" y="0">
<path d="M16.229 13.583c1.823 0.002 3.699 2.132 3.736 4.243 0.035 1.982-1.645 3.729-3.624 3.768-2.093 0.041-3.864-1.71-3.822-3.779 0.046-2.228 1.804-4.234 3.71-4.232z"></path>
<path d="M30.402 12.424c-0.055 1.681-1.439 2.961-3.145 2.908-1.719-0.053-2.967-1.391-2.911-3.12 0.055-1.677 1.479-3.024 3.124-2.955 1.651 0.069 2.986 1.511 2.932 3.167z"></path>
<path d="M21.31 8.795c0.019 1.5-1.125 2.708-2.59 2.733-1.42 0.025-2.692-1.214-2.717-2.644-0.025-1.448 1.178-2.696 2.627-2.725 1.464-0.030 2.662 1.148 2.68 2.636z"></path>
<path d="M24.34 20.531c-0.26 1.172-0.882 1.969-2.161 1.868-1.259-0.1-1.897-0.899-1.799-2.142 0.092-1.162 0.871-1.812 1.986-1.781 1.231 0.034 1.856 0.851 1.975 2.055z"></path>
<path d="M17.456 25.377c-1.072-0.062-1.796-0.603-1.812-1.697-0.016-1.080 0.633-1.728 1.749-1.738 1.024-0.009 1.65 0.603 1.72 1.568 0.079 1.085-0.566 1.711-1.657 1.868z"></path>
<path d="M13.638 5.325c-0.003 0.87-0.377 1.378-1.142 1.432-0.757 0.053-1.25-0.37-1.314-1.146-0.064-0.784 0.357-1.253 1.129-1.311s1.215 0.359 1.327 1.025z"></path>
</svg>
<svg id="loader-red-loader_35" width="32" height="32" viewBox="0 0 32 32" x="1120" y="0">
<path d="M19.945 18.186c-0.087 0.282-0.151 0.917-0.459 1.395-0.644 1-1.568 1.769-1.215 3.247 0.157 0.657-0.678 1.219-1.529 1.211-0.838-0.008-1.517-0.427-1.535-1.234-0.022-0.98-0.436-1.468-1.198-2.013-1.628-1.164-1.836-2.932-0.892-4.956 0.765-1.641 1.941-2.506 3.769-2.188 1.519 0.264 3.048 2.452 3.058 4.538z"></path>
<path d="M26.921 15.609c-1.673 0.030-3.022-1.29-3.044-2.979-0.022-1.709 1.259-3.033 2.956-3.054 1.675-0.020 3.065 1.312 3.093 2.965 0.028 1.627-1.354 3.038-3.004 3.068z"></path>
<path d="M21.060 9.198c-0.019 1.548-1.303 2.817-2.725 2.664-1.506-0.161-2.411-1.017-2.427-2.606-0.016-1.517 1.15-2.616 2.672-2.526 1.603 0.095 2.298 1.096 2.48 2.468z"></path>
<path d="M5.404 11.244c-1.298-0.135-2.181-0.833-2.228-2.258-0.051-1.536 0.862-2.419 2.32-2.425 1.481-0.006 2.389 0.961 2.332 2.438-0.054 1.356-0.91 2.168-2.423 2.245z"></path>
<path d="M23.749 20.268c-0.088 1.232-0.752 1.898-1.896 1.89-1.129-0.008-1.871-0.647-1.877-1.836-0.006-1.266 0.71-1.967 1.971-1.928 1.18 0.037 1.725 0.792 1.802 1.874z"></path>
<path d="M13.774 5.937c-0.086 0.75-0.473 1.259-1.27 1.243-0.775-0.016-1.25-0.5-1.259-1.268-0.010-0.791 0.494-1.231 1.268-1.236 0.791-0.006 1.207 0.46 1.262 1.261z"></path>
</svg>
<svg id="loader-red-loader_36" width="32" height="32" viewBox="0 0 32 32" x="1152" y="0">
<path d="M20.146 18.47c1.26-0.264 2.591-0.461 3.025 1.216 0.27 1.043-0.205 1.888-1.24 2.183-1.48 0.421-2.144-0.539-2.476-1.617-1.87-0.008-1.822 3.566-4.263 2.221-1.93-1.063-3.050-4.109-2.418-5.834 0.623-1.703 1.516-3.161 3.661-3.046 1.832 0.097 2.895 1.499 3.711 4.877z"></path>
<path d="M29.349 12.832c0.006 1.681-1.366 3.058-3.020 3.030-1.65-0.027-3.019-1.463-2.968-3.112 0.050-1.614 1.321-2.858 2.948-2.886 1.74-0.031 3.034 1.232 3.040 2.968z"></path>
<path d="M20.78 9.698c-0.198 1.538-1.030 2.51-2.564 2.508-1.535-0.003-2.507-0.971-2.492-2.498 0.014-1.507 0.948-2.486 2.506-2.486 1.564-0 2.329 1.011 2.55 2.476z"></path>
<path d="M3.803 9.096c0.277-1.432 1.12-2.171 2.534-2.011s2.17 1.095 2.004 2.485c-0.164 1.374-1.102 2.156-2.511 2-1.414-0.156-2.035-1.117-2.028-2.473z"></path>
<path d="M13.966 6.314c-0.169 0.767-0.552 1.294-1.333 1.278-0.874-0.017-1.356-0.569-1.285-1.418 0.064-0.758 0.591-1.171 1.372-1.12 0.79 0.051 1.136 0.567 1.246 1.26z"></path>
</svg>
<svg id="loader-red-loader_37" width="32" height="32" viewBox="0 0 32 32" x="1184" y="0">
<path d="M20.1 18.145c1.174-0.118 2.25 0.084 2.602 1.44 0.207 0.798-0.156 1.492-0.84 1.863-1.254 0.68-2.125-0.044-2.851-0.994-2.687 1.652-5.064 1.263-6.12-0.977-0.918-1.948 0.277-4.988 2.241-5.7 2.262-0.821 3.825 0.538 4.968 4.369z"></path>
<path d="M28.84 13.15c-0.034 1.702-1.374 2.959-3.088 2.897-1.589-0.058-2.881-1.369-2.895-2.938-0.014-1.621 1.417-3.057 3.035-3.044 1.65 0.012 2.981 1.405 2.948 3.085z"></path>
<path d="M18.008 12.576c-1.44-0.142-2.347-0.856-2.426-2.362-0.073-1.387 1.136-2.63 2.492-2.495 1.425 0.142 2.347 0.954 2.326 2.458-0.021 1.499-0.94 2.24-2.391 2.4z"></path>
<path d="M8.228 21.544c1.324 0.187 2.185 0.917 2.182 2.341-0.003 1.536-0.946 2.37-2.408 2.339-1.381-0.030-2.266-0.939-2.251-2.321 0.016-1.467 0.904-2.298 2.476-2.36z"></path>
<path d="M8.892 9.612c-0.115 1.515-0.891 2.358-2.267 2.331-1.372-0.026-2.22-0.91-2.17-2.297 0.045-1.27 0.824-2.076 2.152-2.104 1.437-0.031 2.132 0.804 2.285 2.070z"></path>
<path d="M14.026 6.872c-0.153 0.764-0.611 1.2-1.386 1.127-0.888-0.084-1.277-0.663-1.142-1.526 0.125-0.797 0.69-1.124 1.443-1.014 0.774 0.113 1.12 0.637 1.085 1.414z"></path>
</svg>
<svg id="loader-red-loader_38" width="32" height="32" viewBox="0 0 32 32" x="1216" y="0">
<path d="M16.858 13.57c1.11-0.012 2.016 1.17 2.602 2.673 0.355 0.91 0.454 1.802 1.771 2.036 0.928 0.165 1.205 1.22 0.803 2.136-0.435 0.991-1.331 1.488-2.26 0.858-0.896-0.608-1.541-0.33-2.343 0.018-1.459 0.632-2.774 0.205-3.828-0.862-1.203-1.218-1.32-2.682-0.642-4.238 0.616-1.414 1.432-2.564 3.897-2.619z"></path>
<path d="M28.375 13.328c0.001 1.642-1.459 3.063-3.088 3.006-1.582-0.056-2.887-1.404-2.893-2.99-0.006-1.674 1.387-3.020 3.077-2.971 1.597 0.046 2.904 1.375 2.904 2.955z"></path>
<path d="M8.468 26.066c-1.512-0.074-2.411-0.886-2.411-2.366 0-1.385 0.882-2.269 2.272-2.294 1.488-0.027 2.422 0.862 2.413 2.352-0.009 1.372-0.858 2.178-2.274 2.309z"></path>
<path d="M20.096 10.532c-0.080 1.489-0.84 2.368-2.357 2.368-1.418 0-2.25-0.826-2.278-2.229-0.030-1.5 0.81-2.383 2.328-2.378 1.409 0.004 2.169 0.828 2.308 2.239z"></path>
<path d="M5.114 10.151c0.086-1.285 0.747-2.107 2.073-2.148 1.44-0.044 2.234 0.829 2.216 2.204-0.017 1.293-0.863 2.114-2.154 2.094-1.272-0.020-2.038-0.796-2.135-2.151z"></path>
<path d="M12.814 5.801c0.75 0.062 1.263 0.415 1.306 1.197 0.047 0.849-0.366 1.392-1.254 1.413-0.764 0.018-1.242-0.388-1.304-1.168-0.069-0.884 0.418-1.323 1.252-1.443z"></path>
</svg>
<svg id="loader-red-loader_39" width="32" height="32" viewBox="0 0 32 32" x="1248" y="0">
<path d="M12.574 17.897c-0.004-1.827 1.487-3.949 2.998-4.266 1.754-0.368 3.121 0.581 3.967 2.83 0.256 0.679 0.355 1.325 1.202 1.662 0.937 0.373 1.153 1.28 0.745 2.184-0.379 0.84-1.22 1.224-1.99 0.812-0.895-0.48-1.508 0.004-2.234 0.224-2.349 0.711-4.683-1.007-4.688-3.446z"></path>
<path d="M24.953 16.506c-1.661 0.037-2.945-1.16-3.005-2.798-0.064-1.741 1.214-3.060 2.956-3.052 1.621 0.008 2.925 1.294 2.941 2.901s-1.264 2.914-2.892 2.949z"></path>
<path d="M8.722 21.165c1.496 0.195 2.367 1.027 2.319 2.481-0.045 1.355-0.934 2.242-2.291 2.244-1.434 0.004-2.367-0.832-2.364-2.344 0.002-1.511 0.938-2.216 2.336-2.382z"></path>
<path d="M19.812 11.019c-0.15 1.357-0.804 2.244-2.264 2.244-1.438 0-2.268-0.854-2.28-2.214s0.816-2.238 2.242-2.258c1.443-0.020 2.13 0.859 2.301 2.227z"></path>
<path d="M7.919 8.412c1.244 0.218 2.092 0.904 2.030 2.232-0.062 1.316-0.934 2.068-2.232 2.002-1.21-0.060-1.973-0.882-1.962-2.084 0.012-1.299 0.834-2.016 2.164-2.15z"></path>
<path d="M14.347 7.569c-0.253 0.876-0.719 1.378-1.583 1.246-0.847-0.129-1.26-0.698-1.124-1.536 0.121-0.749 0.674-1.128 1.41-1.078 0.862 0.058 1.208 0.654 1.298 1.368z"></path>
<path d="M11.644 13.436c-0.025 0.975-0.474 1.456-1.344 1.453-0.778-0.003-1.234-0.468-1.26-1.226-0.025-0.739 0.338-1.27 1.136-1.339 0.865-0.074 1.354 0.35 1.467 1.113z"></path>
</svg>
<svg id="loader-red-loader_40" width="32" height="32" viewBox="0 0 32 32" x="1280" y="0">
<path d="M13.245 15.131c0.813-0.642 1.511-1.466 2.766-1.594-0.997-1.441-1.486-2.849 0.207-3.942 1.136-0.734 2.26-0.386 2.923 0.722 0.937 1.565 0.114 2.621-1.426 3.466 1.787 1.203 1.698 3.532 3.228 4.97 0.795 0.747-0.117 2.306-1.31 2.194-0.99-0.092-1.787 0.238-2.666 0.447-2.54 0.604-4.735-1.583-4.248-4.229 0.13-0.708 0.382-1.394 0.578-2.090l-0.052 0.056z"></path>
<path d="M24.449 10.864c1.571 0.040 2.848 1.382 2.84 2.984-0.008 1.691-1.414 3.036-3.072 2.937-1.596-0.094-2.798-1.439-2.742-3.068 0.053-1.592 1.41-2.893 2.974-2.853z"></path>
<path d="M11.346 23.317c-0.126 1.516-0.892 2.388-2.417 2.349-1.421-0.036-2.213-0.884-2.222-2.284-0.009-1.524 0.885-2.345 2.381-2.32 1.419 0.023 2.133 0.895 2.257 2.255z"></path>
<path d="M10.464 10.706c-0.009 1.436-0.68 2.206-1.889 2.273-1.308 0.071-2.15-0.675-2.16-2.017-0.009-1.242 0.792-1.992 1.984-2.020 1.198-0.029 1.919 0.709 2.066 1.764z"></path>
<path d="M13.297 15.076c-0.205 0.157-0.413 0.311-0.616 0.472-0.856 0.68-1.658 0.515-2.153-0.367-0.437-0.778-0.23-1.607 0.689-1.932 0.98-0.346 1.649 0.114 1.918 1.112 0.067 0.249 0.072 0.516 0.108 0.772 0.002-0.002 0.054-0.058 0.054-0.058z"></path>
<path d="M12.962 9.257c-0.833-0.117-1.308-0.626-1.248-1.467 0.053-0.752 0.595-1.23 1.329-1.217 0.813 0.015 1.381 0.487 1.361 1.378-0.020 0.886-0.563 1.282-1.442 1.306z"></path>
</svg>
<svg id="loader-red-loader_41" width="32" height="32" viewBox="0 0 32 32" x="1312" y="0">
<path d="M15.433 13.458c-0.656-1.3-0.812-2.58 0.671-3.403 0.894-0.496 1.853-0.348 2.54 0.447 1.133 1.312 0.426 2.436-0.621 3.536 1.456 1.278 1.51 3.22 2.484 4.72 0.404 0.624 0.052 1.299-0.54 1.732-3.162 2.308-6.558 0.912-7.288-3.004-0.186-0.996-1.744-1.616-0.724-2.952 0.833-1.091 2.073-0.021 2.955-0.674 0.157-0.116 0.309-0.238 0.522-0.403z"></path>
<path d="M23.82 11.174c1.623-0.035 2.952 1.229 2.988 2.84 0.035 1.631-1.219 2.943-2.848 2.98-1.618 0.037-2.97-1.243-3.006-2.844-0.036-1.609 1.248-2.942 2.866-2.976z"></path>
<path d="M11.658 23.070c-0.066 1.536-0.875 2.438-2.32 2.458-1.458 0.020-2.355-0.906-2.352-2.368 0.002-1.359 0.838-2.256 2.208-2.313 1.467-0.060 2.288 0.8 2.464 2.223z"></path>
<path d="M9.039 9.424c1.239 0.096 1.935 0.767 1.95 1.914 0.016 1.255-0.732 2.018-2.002 1.982-1.266-0.036-1.952-0.805-1.874-2.088 0.072-1.198 0.835-1.736 1.927-1.808z"></path>
<path d="M14.516 8.396c-0.084 0.85-0.566 1.302-1.443 1.261-0.795-0.038-1.216-0.538-1.239-1.291-0.028-0.874 0.5-1.405 1.339-1.406 0.842 0 1.318 0.535 1.343 1.436z"></path>
<path d="M22.448 31.526c-0.941-0.171-1.429-0.627-1.352-1.51 0.068-0.775 0.542-1.224 1.312-1.19 0.875 0.038 1.295 0.586 1.25 1.453-0.043 0.818-0.63 1.081-1.21 1.247z"></path>
</svg>
<svg id="loader-red-loader_42" width="32" height="32" viewBox="0 0 32 32" x="1344" y="0">
<path d="M17.507 21.394c1.347 0.674 2.174 1.576 1.386 3.042-0.58 1.080-1.594 1.476-2.701 0.792-1.599-0.989-1.137-2.29-0.289-3.539-3.888-1.896-4.379-4.617-1.331-7.626 0.545-0.538 0.32-0.879 0.252-1.363-0.136-0.967 0.243-1.724 1.099-2.15 0.762-0.379 1.56-0.327 2.24 0.252 0.756 0.644 1 1.586 0.511 2.335-0.589 0.904-0.185 1.412 0.262 2.087 0.674 1.018 0.838 2.231 1.088 3.394 0.423 1.958-1.577 1.8-2.518 2.776z"></path>
<path d="M26.33 14.292c0.032 1.566-1.288 2.913-2.881 2.94-1.603 0.027-2.952-1.252-2.986-2.832-0.034-1.572 1.275-2.908 2.879-2.934 1.609-0.027 2.956 1.248 2.988 2.827z"></path>
<path d="M9.735 25.35c-1.548-0.106-2.428-0.894-2.455-2.259-0.028-1.458 0.828-2.377 2.361-2.378 1.43-0.001 2.269 0.85 2.316 2.22 0.052 1.506-0.888 2.268-2.222 2.418z"></path>
<path d="M9.508 13.688c-1.152-0.094-1.82-0.809-1.795-1.921 0.024-1.103 0.692-1.853 1.899-1.837 1.286 0.017 1.985 0.771 1.918 2.004-0.062 1.136-0.81 1.749-2.022 1.754z"></path>
<path d="M14.714 8.732c-0.164 0.809-0.56 1.362-1.448 1.34-0.874-0.021-1.349-0.51-1.333-1.378 0.016-0.872 0.575-1.368 1.388-1.359 0.828 0.009 1.277 0.586 1.394 1.397z"></path>
<path d="M22.123 30.848c-0.833-0.111-1.307-0.538-1.311-1.308-0.005-0.89 0.564-1.347 1.404-1.325 0.765 0.020 1.262 0.54 1.255 1.288-0.008 0.842-0.548 1.306-1.348 1.346z"></path>
</svg>
<svg id="loader-red-loader_43" width="32" height="32" viewBox="0 0 32 32" x="1376" y="0">
<path d="M18.001 21.218c0.861 0.874 1.636 1.844 0.65 3.075-0.678 0.847-1.632 0.951-2.496 0.366-1.178-0.797-0.96-1.896-0.358-2.966-3.581-2.038-4.065-4.315-1.485-7.458 0.474-0.578 0.318-1.072 0.388-1.626 0.147-1.174 0.858-1.833 2.005-1.767 1.256 0.072 1.92 0.876 1.807 2.142-0.064 0.717-0.172 1.302 0.265 2.034 1.524 2.556 1.293 3.989-0.775 6.199z"></path>
<path d="M25.783 14.532c0.038 1.596-1.291 2.985-2.864 2.992-1.576 0.008-2.936-1.366-2.921-2.95 0.014-1.508 1.266-2.808 2.779-2.884 1.569-0.080 2.968 1.243 3.006 2.843z"></path>
<path d="M9.843 25.222c-1.387-0.224-2.287-0.974-2.24-2.48 0.044-1.406 0.938-2.222 2.276-2.246 1.459-0.026 2.39 0.888 2.391 2.342 0.002 1.453-0.919 2.252-2.428 2.384z"></path>
<path d="M10.248 10.358c1.145 0.132 1.818 0.742 1.784 1.929-0.032 1.083-0.661 1.716-1.743 1.744-1.176 0.030-1.879-0.611-1.897-1.79-0.018-1.182 0.694-1.775 1.856-1.883z"></path>
<path d="M13.366 10.508c-0.831-0.083-1.355-0.504-1.366-1.368s0.536-1.386 1.328-1.413c0.899-0.029 1.486 0.515 1.456 1.472-0.027 0.868-0.59 1.255-1.418 1.309z"></path>
<path d="M22.032 27.572c0.716 0.106 1.179 0.525 1.179 1.305 0 0.892-0.555 1.358-1.392 1.333-0.758-0.022-1.258-0.549-1.24-1.299 0.020-0.826 0.513-1.338 1.453-1.339z"></path>
</svg>
<svg id="loader-red-loader_44" width="32" height="32" viewBox="0 0 32 32" x="1408" y="0">
<path d="M18.108 21.010c0.742 0.838 1.274 1.753 0.483 2.83-0.492 0.67-1.243 0.79-1.975 0.501-1.413-0.559-1.066-1.772-0.922-2.852-2.96-1.379-3.663-3.233-2.27-6.083 0.454-0.929 1.088-1.733 1.253-2.831 0.13-0.869 0.954-1.28 1.819-1.225 0.962 0.062 1.757 0.672 1.722 1.61-0.037 1.019 0.418 1.707 0.85 2.508 1.138 2.112 0.856 3.58-0.961 5.541z"></path>
<path d="M19.569 14.658c0.112-1.598 1.518-2.8 3.107-2.655 1.596 0.145 2.728 1.54 2.573 3.171-0.148 1.55-1.404 2.612-2.993 2.533-1.634-0.082-2.802-1.406-2.687-3.049z"></path>
<path d="M7.909 22.543c0.172-1.409 0.969-2.256 2.491-2.175 1.431 0.076 2.175 0.974 2.156 2.362-0.020 1.418-0.895 2.264-2.272 2.271-1.47 0.008-2.315-0.852-2.375-2.457z"></path>
<path d="M10.77 14.427c-1.072-0.104-1.702-0.704-1.718-1.776-0.016-1.078 0.62-1.774 1.684-1.805 1.174-0.034 1.855 0.692 1.826 1.858-0.027 1.070-0.693 1.653-1.792 1.724z"></path>
<path d="M14.897 9.479c-0.038 0.888-0.471 1.397-1.341 1.426-0.856 0.029-1.418-0.445-1.469-1.276-0.057-0.936 0.521-1.524 1.442-1.52 0.822 0.003 1.31 0.539 1.368 1.37z"></path>
<path d="M22.979 28.412c-0.194 0.868-0.722 1.313-1.577 1.152-0.751-0.141-1.118-0.683-1.027-1.46 0.092-0.789 0.63-1.208 1.357-1.164 0.844 0.053 1.275 0.621 1.248 1.471z"></path>
</svg>
<svg id="loader-red-loader_45" width="32" height="32" viewBox="0 0 32 32" x="1440" y="0">
<path d="M19.846 17.444c-0.19 1.090-0.267 2.123-1.078 2.827-0.533 0.462-0.32 0.819-0.084 1.356 0.481 1.095 0.13 2.054-1.083 2.299-1.202 0.243-1.99-0.496-1.882-1.681 0.075-0.825-0.29-0.929-0.84-1.221-1.909-1.012-2.496-2.408-1.826-4.47 0.422-1.298 0.994-2.554 1.574-3.794 0.307-0.657 0.942-0.889 1.67-0.851 0.747 0.039 1.258 0.431 1.529 1.089 0.267 0.648 0.162 1.492 1.030 1.787 1.211-2.231 2.635-2.978 4.278-2.238 1.383 0.622 2.041 2.296 1.449 3.685-0.714 1.674-2.224 2.099-4.736 1.213z"></path>
<path d="M10.54 24.86c-1.513-0.148-2.348-0.971-2.296-2.473 0.050-1.424 0.97-2.239 2.334-2.208 1.461 0.032 2.352 0.911 2.279 2.451-0.068 1.425-0.941 2.117-2.318 2.23z"></path>
<path d="M13.166 13.111c-0.204 1.016-0.75 1.73-1.86 1.654-1.079-0.074-1.701-0.779-1.63-1.857 0.066-0.984 0.758-1.6 1.718-1.589 1.062 0.012 1.656 0.702 1.772 1.792z"></path>
<path d="M15.075 10.046c-0.24 0.916-0.773 1.416-1.714 1.258-0.839-0.14-1.248-0.721-1.152-1.546 0.095-0.826 0.652-1.325 1.474-1.272 0.917 0.060 1.351 0.688 1.393 1.56z"></path>
<path d="M22.799 27.606c-0.165 0.957-0.668 1.4-1.536 1.316-0.78-0.076-1.229-0.593-1.168-1.345 0.068-0.839 0.611-1.309 1.498-1.224 0.802 0.077 1.094 0.634 1.206 1.253z"></path>
</svg>
<svg id="loader-red-loader_46" width="32" height="32" viewBox="0 0 32 32" x="1472" y="0">
<path d="M19.807 17.955c-0.137 1.606-1.797 2.572-1.072 4.326 0.221 0.534-0.514 1.041-1.136 1.163-0.741 0.144-1.48-0.195-1.55-0.892-0.105-1.046-0.738-1.339-1.506-1.77-1.422-0.798-1.937-2.117-1.632-3.728 0.074-0.39 0.188-0.774 0.31-1.15 1.316-4.044 2.323-4.325 5.346-1.358 1.082-1.659 2.531-2.594 4.436-1.45 1.27 0.764 1.716 2.028 1.062 3.455-0.819 1.786-2.29 2.021-4.259 1.404z"></path>
<path d="M10.892 19.956c1.448 0.242 2.354 0.983 2.304 2.493-0.047 1.407-0.94 2.222-2.276 2.245-1.458 0.025-2.386-0.893-2.39-2.344-0.004-1.456 0.94-2.232 2.362-2.394z"></path>
<path d="M13.648 13.53c-0.125 1.039-0.724 1.639-1.698 1.596-1.072-0.048-1.678-0.726-1.584-1.848 0.088-1.058 0.798-1.506 1.765-1.444 1.009 0.065 1.497 0.718 1.518 1.696z"></path>
<path d="M15.2 10.281c-0.058 0.888-0.508 1.42-1.353 1.469-0.938 0.054-1.518-0.427-1.537-1.407-0.017-0.869 0.496-1.406 1.312-1.458 0.928-0.060 1.447 0.512 1.578 1.397z"></path>
<path d="M22.477 27.212c-0.14 0.762-0.619 1.196-1.376 1.128-0.863-0.077-1.281-0.652-1.182-1.516 0.090-0.783 0.621-1.206 1.364-1.14 0.853 0.075 1.253 0.653 1.194 1.528z"></path>
</svg>
<svg id="loader-red-loader_47" width="32" height="32" viewBox="0 0 32 32" x="1504" y="0">
<path d="M13.903 12.559c-0.077 0.365 0.212 0.835 0.379 0.729 1.741-1.105 2.81 0.458 4.15 1.046 1.242-1.268 2.628-1.96 4.243-0.832 1.075 0.751 1.499 1.85 1.030 3.153-0.676 1.879-2.162 2.136-3.968 1.766-0.169 1.21-1.569 1.86-1.042 3.3 0.173 0.473-0.308 0.988-0.897 1.139-0.639 0.164-1.35 0.074-1.515-0.572-0.243-0.948-0.994-1.095-1.654-1.487-1.962-1.167-1.995-2.955-1.38-4.984-1.078-0.506-2.732-0.65-2.145-2.422 0.492-1.486 1.711-1.155 2.838-0.836l-0.038-0.002z"></path>
<path d="M11.249 19.866c1.434 0.128 2.289 0.937 2.283 2.306-0.006 1.466-0.896 2.355-2.421 2.32-1.426-0.033-2.26-0.911-2.261-2.278-0.002-1.481 0.912-2.28 2.4-2.347z"></path>
<path d="M13.94 12.56c-0.852-0.501-1.816-0.944-1.518-2.21 0.149-0.632 0.623-1.014 1.259-1.083 0.739-0.080 1.265 0.294 1.518 0.984 0.466 1.267-0.7 1.633-1.303 2.306 0.006 0.002 0.044 0.004 0.044 0.004z"></path>
<path d="M20.967 25.086c0.868 0.072 1.375 0.564 1.315 1.413-0.052 0.737-0.554 1.205-1.339 1.178-0.872-0.029-1.364-0.532-1.31-1.4 0.048-0.772 0.57-1.15 1.334-1.191z"></path>
</svg>
<svg id="loader-red-loader_48" width="32" height="32" viewBox="0 0 32 32" x="1536" y="0">
<path d="M13.17 12.595c-0.842-0.988-1.109-1.872-0.045-2.678 0.702-0.53 1.447-0.378 1.947 0.266 0.985 1.27-0.113 2.003-0.944 3.001 1.981-0.499 3.076 2.532 5.464 0.876 1.050-0.729 2.473 0.158 2.886 1.617 0.428 1.511-0.148 2.717-1.663 3.099-1.598 0.403-2.382 1.128-2.096 2.844 0.092 0.55-0.259 1.021-0.832 1.211-0.622 0.206-1.351 0.162-1.55-0.464-0.327-1.028-1.192-1.255-1.927-1.76-1.598-1.098-1.732-2.697-1.204-4.38-2.149-1.594-2.157-2.4-0.035-3.632z"></path>
<path d="M11.214 19.866c1.447 0.115 2.309 0.914 2.317 2.283 0.008 1.467-0.87 2.364-2.396 2.343-1.426-0.020-2.268-0.886-2.284-2.256-0.017-1.482 0.89-2.287 2.363-2.37z"></path>
<path d="M20.668 24.394c0.794 0.107 1.304 0.476 1.351 1.263 0.053 0.891-0.468 1.405-1.301 1.438-0.756 0.030-1.261-0.47-1.305-1.233-0.050-0.863 0.46-1.332 1.255-1.467z"></path>
</svg>
<svg id="loader-red-loader_49" width="32" height="32" viewBox="0 0 32 32" x="1568" y="0">
<path d="M14.442 13.438c1.548 0.727 2.939 1.462 4.583 1.419 1.314-0.034 2.208 0.582 2.466 1.843 0.244 1.195-0.396 2.005-1.487 2.509-0.93 0.43-1.706 0.944-1.306 2.235 0.194 0.625-0.177 1.171-0.83 1.39-0.715 0.24-1.434 0.084-1.656-0.647-0.246-0.811-0.772-1.125-1.459-1.414-0.627-0.264-1.387-0.807-1.331-1.371 0.205-2.068-2.034-4.015-0.279-6.122 0.335-0.402-0.135-0.556-0.28-0.796-0.539-0.89-0.422-1.658 0.443-2.236 0.639-0.427 1.294-0.298 1.803 0.244 0.73 0.776 0.596 1.546-0.131 2.268-0.17 0.17-0.3 0.378-0.536 0.679z"></path>
<path d="M11.113 19.858c1.548 0.123 2.41 0.921 2.418 2.291 0.008 1.467-0.87 2.364-2.396 2.343-1.426-0.020-2.265-0.885-2.285-2.256-0.022-1.493 0.912-2.266 2.264-2.378z"></path>
<path d="M20.49 26.443c-0.824-0.040-1.327-0.47-1.314-1.355 0.012-0.79 0.499-1.228 1.255-1.253 0.876-0.029 1.38 0.491 1.362 1.345-0.016 0.747-0.472 1.208-1.303 1.263z"></path>
</svg>
<svg id="loader-red-loader_50" width="32" height="32" viewBox="0 0 32 32" x="1600" y="0">
<path d="M14.839 13.468c0.436 0.738 1.005 0.935 1.719 0.981 1.525 0.096 2.464 1.208 3.472 2.16 0.48 0.454 0.625 1.179 0.324 1.667-0.814 1.316-2.014 2.328-2.026 4.159-0.005 0.692-1.585 0.805-1.899-0.007-0.449-1.161-1.4-1.458-2.214-2.070-0.916-0.689-1.374-1.746-1.106-2.828 0.311-1.252-0.762-2.636 0.456-3.792 0.223-0.212-0.306-0.5-0.494-0.75-0.552-0.734-0.594-1.489 0.084-2.148 0.611-0.594 1.328-0.61 1.97-0.040 0.71 0.631 0.716 1.376 0.184 2.134-0.14 0.199-0.322 0.368-0.47 0.534z"></path>
<path d="M11.2 19.866c1.477 0.102 2.37 0.927 2.33 2.405-0.037 1.364-0.89 2.225-2.319 2.221-1.525-0.004-2.39-0.903-2.358-2.377 0.030-1.377 0.906-2.151 2.348-2.249z"></path>
<path d="M20.276 23.162c0.881 0.167 1.383 0.638 1.287 1.515-0.085 0.774-0.642 1.182-1.384 1.153-0.76-0.030-1.275-0.54-1.267-1.288 0.008-0.83 0.532-1.322 1.364-1.38z"></path>
</svg>
<svg id="loader-red-loader_51" width="32" height="32" viewBox="0 0 32 32" x="1632" y="0">
<path d="M14.746 14.006c0.774 0.178 1.551 0.338 2.319 0.538 1.875 0.487 2.878 2.038 2.556 3.921-0.283 1.649-2.012 2.89-3.679 2.641-1.838-0.275-3.037-1.783-2.796-3.726 0.16-1.289 0.26-2.687 1.653-3.414l-0.053 0.040z"></path>
<path d="M14.8 13.966c-0.48 0.080-0.915-0.057-1.311-0.311-0.802-0.515-0.964-1.277-0.535-2.050s1.181-1.074 2.019-0.618c0.806 0.438 1.062 1.174 0.665 2.005-0.187 0.391-0.587 0.68-0.891 1.016-0-0.001 0.053-0.041 0.053-0.041z"></path>
<path d="M21.307 24.001c-0.144 0.81-0.593 1.241-1.367 1.188-0.883-0.060-1.281-0.614-1.205-1.475 0.071-0.795 0.616-1.199 1.342-1.153 0.848 0.053 1.259 0.623 1.23 1.44z"></path>
</svg>
<svg id="loader-red-loader_52" width="32" height="32" viewBox="0 0 32 32" x="1664" y="0">
<path d="M15.108 14.499c0.726 0.043 1.485-0.035 2.17 0.155 1.607 0.446 2.421 1.584 2.365 3.264-0.056 1.698-1.007 2.735-2.616 3.079-1.539 0.329-2.811-0.26-3.494-1.669-0.678-1.399-0.736-2.833 0.584-3.999 0.342-0.303 0.697-0.591 1.046-0.886l-0.054 0.056z"></path>
<path d="M15.162 14.444c-0.127-0.033-0.255-0.097-0.382-0.093-0.978 0.029-1.718-0.336-1.929-1.34-0.176-0.833 0.275-1.43 1.025-1.725 0.692-0.272 1.318-0.049 1.756 0.558 0.639 0.885 0.285 1.616-0.394 2.291-0.082 0.081-0.086 0.238-0.129 0.363-0.001 0.002 0.053-0.054 0.053-0.054z"></path>
<path d="M21.15 23.166c-0.123 0.859-0.522 1.365-1.3 1.384-0.854 0.021-1.417-0.439-1.408-1.32 0.007-0.757 0.466-1.232 1.252-1.278 0.918-0.055 1.273 0.538 1.456 1.214z"></path>
</svg>
<svg id="loader-red-loader_53" width="32" height="32" viewBox="0 0 32 32" x="1696" y="0">
<path d="M14.493 15.011c-0.945-0.614-2.089-1.148-1.367-2.593 0.38-0.759 1.077-1.030 1.84-0.748 1.207 0.445 1.235 1.409 0.845 2.591 2.011 0.417 3.898 1.067 3.824 3.642-0.046 1.582-0.898 2.586-2.404 3.019-1.546 0.444-2.779-0.124-3.58-1.42-1.029-1.666-0.511-3.165 0.841-4.491z"></path>
<path d="M19.724 24.565c-0.749-0.067-1.314-0.478-1.281-1.367 0.028-0.759 0.5-1.23 1.284-1.245 0.891-0.018 1.394 0.515 1.382 1.354-0.010 0.746-0.507 1.202-1.386 1.258z"></path>
</svg>
<svg id="loader-red-loader_54" width="32" height="32" viewBox="0 0 32 32" x="1728" y="0">
<path d="M19.642 17.491c-0.015 1.681-0.676 2.708-1.935 3.258-1.256 0.55-2.485 0.356-3.511-0.586-1.030-0.945-1.316-2.166-0.849-3.448 0.308-0.845 0.804-1.441-0.046-2.395-0.672-0.755-0.309-1.857 0.78-2.234 1.042-0.361 2.040 0.095 2.012 1.214-0.030 1.194 0.686 1.19 1.401 1.443 1.413 0.499 2.062 1.565 2.149 2.747z"></path>
</svg>
<svg id="loader-red-loader_55" width="32" height="32" viewBox="0 0 32 32" x="1760" y="0">
<path d="M19.615 17.858c-0.037 1.81-1.56 3.256-3.355 3.184-1.817-0.073-3.184-1.582-3.098-3.422 0.081-1.74 1.511-3.106 3.236-3.092 1.797 0.014 3.254 1.522 3.217 3.33z"></path>
</svg>
</svg>
