<svg width="24" height="24" viewBox="0 0 24 24" fill="none" xmlns="http://www.w3.org/2000/svg">
<path fill-rule="evenodd" clip-rule="evenodd" d="M5 4.5H19C19.2761 4.5 19.5 4.72386 19.5 5V19C19.5 19.2761 19.2761 19.5 19 19.5H5C4.72386 19.5 4.5 19.2761 4.5 19V5C4.5 4.72386 4.72386 4.5 5 4.5ZM3 5C3 3.89543 3.89543 3 5 3H19C20.1046 3 21 3.89543 21 5V19C21 20.1046 20.1046 21 19 21H5C3.89543 21 3 20.1046 3 19V5ZM8.5 10.75C8.5 10.3358 8.16421 10 7.75 10C7.33579 10 7 10.3358 7 10.75L7 16.25C7 16.6642 7.33579 17 7.75 17C8.16421 17 8.5 16.6642 8.5 16.25L8.5 10.75ZM12.25 6C12.6642 6 13 6.33579 13 6.75V16.25C13 16.6642 12.6642 17 12.25 17C11.8358 17 11.5 16.6642 11.5 16.25V6.75C11.5 6.33579 11.8358 6 12.25 6ZM17.5 12.75C17.5 12.3358 17.1642 12 16.75 12C16.3358 12 16 12.3358 16 12.75V16.25C16 16.6642 16.3358 17 16.75 17C17.1642 17 17.5 16.6642 17.5 16.25V12.75Z" fill="#212121"/>
</svg>
