<?xml version="1.0" encoding="utf-8"?>
<!-- Generator: Adobe Illustrator 16.0.0, SVG Export Plug-In . SVG Version: 6.00 Build 0)  -->
<!DOCTYPE svg PUBLIC "-//W3C//DTD SVG 1.1//EN" "http://www.w3.org/Graphics/SVG/1.1/DTD/svg11.dtd">
<svg version="1.1" id="Chevron_left" xmlns="http://www.w3.org/2000/svg" xmlns:xlink="http://www.w3.org/1999/xlink" x="0px"
	 y="0px" width="792px" height="1224px" viewBox="0 0 792 1224" enable-background="new 0 0 792 1224" xml:space="preserve">
<path d="M154.251,613.644c0.25,24.698,16.648,42.327,45.066,43.176h288.345L382.253,766.757c-19.047,21.106-17.661,45.185,0,62.33
	c17.622,17.266,47.401,16.157,63.954,0c16.552-16.077,178.279-185.922,178.279-185.922c8.83-8.593,13.266-19.879,13.266-31.165
	s-4.436-22.572-13.266-31.244c0,0-161.727-169.766-178.28-185.923c-16.553-16.196-46.332-17.266-63.954,0
	c-17.661,17.266-19.047,41.304,0,62.41l105.393,109.921c-117.917,0.085-286.789,0.221-289.151,0.3
	C175.348,568.212,153.974,588.976,154.251,613.644z"/>
</svg>
