<?xml version="1.0" encoding="utf-8"?>
<!DOCTYPE svg PUBLIC "-//W3C//DTD SVG 1.1//EN" "http://www.w3.org/Graphics/SVG/1.1/DTD/svg11.dtd">
<svg version="1.1" id="heart" xmlns="http://www.w3.org/2000/svg" xmlns:xlink="http://www.w3.org/1999/xlink" x="0px" y="0px"
width="20px" height="20px" viewBox="0 0 20 20" enable-background="new 0 0 20 20" xml:space="preserve">
<path d="M7.999,13.834c-0.368,0-0.719-0.137-0.987-0.385l-3.241-2.791c-0.349-0.344-1.973-1.969-2.302-2.523
C1.185,7.715,0.986,7.228,0.894,6.708C0.867,6.591,0.817,6.071,0.84,5.913c0.033-2.038,1.822-3.746,3.982-3.746
c1.074,0,2.134,0.478,3.067,1.382l0.11,0.106L8.11,3.548c0.933-0.904,1.993-1.382,3.066-1.382c2.16,0,3.949,1.708,3.988,3.807
c0.019,0.103-0.035,0.624-0.062,0.752c-0.089,0.498-0.287,0.985-0.585,1.432c-0.315,0.533-1.94,2.157-2.263,2.477l-3.28,2.827
C8.719,13.697,8.368,13.834,7.999,13.834z M4.822,3.167c-1.619,0-2.958,1.267-2.987,2.825c-0.003,0.104,0.023,0.438,0.04,0.522
c0.072,0.4,0.218,0.759,0.439,1.086c0.22,0.37,1.424,1.619,2.136,2.325l3.227,2.778c0.127,0.117,0.445,0.188,0.634,0.012L11.576,9.9
c0.686-0.683,1.891-1.931,2.096-2.276c0.235-0.354,0.382-0.714,0.449-1.092c0.019-0.092,0.047-0.434,0.046-0.516
c-0.031-1.583-1.371-2.851-2.99-2.851c-1.021,0-1.853,0.598-2.371,1.1L8.53,4.532C8.407,4.656,8.226,4.733,8.027,4.744
c-0.25-0.011-0.428-0.085-0.558-0.21L7.193,4.268C6.675,3.765,5.843,3.167,4.822,3.167z"/>
</svg>
