<?xml version="1.0" encoding="utf-8"?>
<!DOCTYPE svg PUBLIC "-//W3C//DTD SVG 1.1//EN" "http://www.w3.org/Graphics/SVG/1.1/DTD/svg11.dtd">
<svg version="1.1" id="fullheart" xmlns="http://www.w3.org/2000/svg" xmlns:xlink="http://www.w3.org/1999/xlink" x="0px" y="0px"
width="20px" height="20px" viewBox="0 0 20 20" enable-background="new 0 0 20 20" xml:space="preserve" style="vertical-align: middle;">
<path d="M14.665,5.982c-0.034-1.833-1.585-3.316-3.488-3.316c-1.051,0-1.977,0.522-2.719,1.241L8.183,4.173
C8.138,4.218,8.069,4.241,7.999,4.245C7.93,4.241,7.862,4.218,7.815,4.173L7.541,3.908C6.799,3.189,5.873,2.667,4.822,2.667
c-1.903,0-3.454,1.482-3.487,3.316c-0.01,0.069,0.025,0.52,0.051,0.638c0.082,0.458,0.26,0.884,0.513,1.259
c0.313,0.528,2.198,2.399,2.198,2.399l3.252,2.803h0.002c0.169,0.156,0.396,0.252,0.648,0.252l0,0l0,0l0,0l0,0l0,0
c0.252,0,0.48-0.096,0.65-0.252l0,0l3.254-2.803c0,0,1.885-1.871,2.198-2.399c0.251-0.375,0.43-0.801,0.512-1.259
C14.638,6.502,14.675,6.051,14.665,5.982z"/>
</svg>
