<?xml version="1.0" encoding="utf-8"?>
<!-- Generator: Adobe Illustrator 16.0.0, SVG Export Plug-In . SVG Version: 6.00 Build 0)  -->
<!DOCTYPE svg PUBLIC "-//W3C//DTD SVG 1.1//EN" "http://www.w3.org/Graphics/SVG/1.1/DTD/svg11.dtd">
<svg version="1.1" id="Layer_1" xmlns:sketch="http://www.bohemiancoding.com/sketch/ns"
	 xmlns="http://www.w3.org/2000/svg" xmlns:xlink="http://www.w3.org/1999/xlink" x="0px" y="0px" width="1296px" height="1728px"
	 viewBox="0 0 1296 1728" enable-background="new 0 0 1296 1728" xml:space="preserve">
<title>Shape 3 + Rectangle 1</title>
<description>Created with Sketch.</description>
<path fill="#FFFFFF" d="M1101.444,270.568h-64.777v129.556H842.333V270.568H453.666v129.556H259.334V270.568h-64.778
	C123.23,270.568,65,328.862,65,400.124v807.333c0,71.23,58.23,129.556,129.556,129.556h906.889
	c71.23,0,129.556-58.325,129.556-129.556V400.124C1231,328.862,1172.675,270.568,1101.444,270.568L1101.444,270.568z
	 M1101.444,1207.457H194.556V659.235h906.889V1207.457L1101.444,1207.457z M421.277,141.013H291.723v226.723h129.555V141.013
	L421.277,141.013z M1004.277,141.013H874.723v226.723h129.555V141.013L1004.277,141.013z M744.553,849.317h259.111v259.111H744.553
	V849.317z"/>
</svg>
