<?xml version="1.0" encoding="utf-8"?>
<!-- Generator: Adobe Illustrator 19.1.0, SVG Export Plug-In . SVG Version: 6.00 Build 0)  -->
<svg version="1.1" id="Layer_1" xmlns="http://www.w3.org/2000/svg" xmlns:xlink="http://www.w3.org/1999/xlink" x="0px" y="0px"
	 viewBox="-293 385 23.7 24" style="enable-background:new -293 385 23.7 24;" xml:space="preserve">
<style type="text/css">
	.st0{clip-path:url(#SVGID_2_);fill:#FFFFFF;}
	.st1{clip-path:url(#SVGID_4_);fill:#FFFFFF;}
	.st2{clip-path:url(#SVGID_6_);fill:#FFFFFF;}
	.st3{clip-path:url(#SVGID_8_);fill:#FFFFFF;}
</style>
<g>
	<g>
		<defs>
			<rect id="SVGID_1_" x="-293" y="385" width="23.7" height="24"/>
		</defs>
		<clipPath id="SVGID_2_">
			<use xlink:href="#SVGID_1_"  style="overflow:visible;"/>
		</clipPath>
		<path class="st0" d="M-278.1,390.1v4.7l1.6,1c0,0,0.1,0,0.2,0l7.1-4.8c0-0.6-0.5-1-0.8-1H-278.1z"/>
	</g>
	<g>
		<defs>
			<rect id="SVGID_3_" x="-293" y="385" width="23.7" height="24"/>
		</defs>
		<clipPath id="SVGID_4_">
			<use xlink:href="#SVGID_3_"  style="overflow:visible;"/>
		</clipPath>
		<path class="st1" d="M-278.1,396.5l1.5,1c0.2,0.2,0.5,0,0.5,0c-0.3,0.2,6.9-4.6,6.9-4.6v8.6c0,0.9-0.6,1.3-1.3,1.3h-7.6V396.5
			L-278.1,396.5z"/>
	</g>
	<g>
		<defs>
			<rect id="SVGID_5_" x="-293" y="385" width="23.7" height="24"/>
		</defs>
		<clipPath id="SVGID_6_">
			<use xlink:href="#SVGID_5_"  style="overflow:visible;"/>
		</clipPath>
		<path class="st2" d="M-285.9,394.4c-0.5,0-0.9,0.2-1.2,0.7c-0.3,0.5-0.5,1.1-0.5,1.9c0,0.8,0.2,1.4,0.5,1.9
			c0.3,0.5,0.7,0.7,1.2,0.7c0.5,0,0.9-0.2,1.2-0.7c0.3-0.5,0.4-1.1,0.4-1.9c0-0.8-0.1-1.5-0.4-2C-285,394.6-285.4,394.4-285.9,394.4
			"/>
	</g>
	<g>
		<defs>
			<rect id="SVGID_7_" x="-293" y="385" width="23.7" height="24"/>
		</defs>
		<clipPath id="SVGID_8_">
			<use xlink:href="#SVGID_7_"  style="overflow:visible;"/>
		</clipPath>
		<path class="st3" d="M-293,387.7v18.4l14,2.9v-24L-293,387.7z M-283.6,400c-0.6,0.8-1.4,1.2-2.3,1.2c-0.9,0-1.7-0.4-2.3-1.1
			c-0.6-0.8-0.9-1.7-0.9-2.9c0-1.3,0.3-2.3,0.9-3.1c0.6-0.8,1.4-1.2,2.4-1.2c0.9,0,1.7,0.4,2.2,1.1c0.6,0.8,0.9,1.8,0.9,3
			C-282.8,398.2-283.1,399.2-283.6,400"/>
	</g>
</g>
</svg>
