<svg width="25" height="24" viewBox="0 0 25 24" fill="none" xmlns="http://www.w3.org/2000/svg">
<g clip-path="url(#clip0_3821_18268)">
<path fill-rule="evenodd" clip-rule="evenodd" d="M5 7.125C5 5.39911 6.39911 4 8.125 4C9.85089 4 11.25 5.39911 11.25 7.125C11.25 8.85089 9.85089 10.25 8.125 10.25C6.39911 10.25 5 8.85089 5 7.125ZM8.125 2.5C5.57068 2.5 3.5 4.57068 3.5 7.125C3.5 9.67932 5.57068 11.75 8.125 11.75C10.6793 11.75 12.75 9.67932 12.75 7.125C12.75 4.57068 10.6793 2.5 8.125 2.5ZM3.75736 16.0074C4.88258 14.8821 6.4087 14.25 8 14.25C9.5913 14.25 11.1174 14.8821 12.2426 16.0074C13.3679 17.1326 14 18.6587 14 20.25C14 20.6642 14.3358 21 14.75 21C15.1642 21 15.5 20.6642 15.5 20.25C15.5 18.2609 14.7098 16.3532 13.3033 14.9467C11.8968 13.5402 9.98912 12.75 8 12.75C6.01088 12.75 4.10322 13.5402 2.6967 14.9467C1.29018 16.3532 0.5 18.2609 0.5 20.25C0.5 20.6642 0.835786 21 1.25 21C1.66421 21 2 20.6642 2 20.25C2 18.6587 2.63214 17.1326 3.75736 16.0074ZM18.375 7C17.0633 7 16 8.06332 16 9.375C16 10.6867 17.0633 11.75 18.375 11.75C19.6867 11.75 20.75 10.6867 20.75 9.375C20.75 8.06332 19.6867 7 18.375 7ZM14.5 9.375C14.5 7.2349 16.2349 5.5 18.375 5.5C20.5151 5.5 22.25 7.2349 22.25 9.375C22.25 11.5151 20.5151 13.25 18.375 13.25C16.2349 13.25 14.5 11.5151 14.5 9.375ZM16.5724 15.7717C17.2941 15.5057 18.0694 15.418 18.8324 15.516C19.5953 15.6139 20.3233 15.8947 20.9544 16.3345C21.5855 16.7742 22.1011 17.3599 22.4572 18.0417C22.8134 18.7235 22.9996 19.4812 23 20.2504C23.0002 20.6646 23.3362 21.0002 23.7504 21C24.1646 20.9998 24.5002 20.6638 24.5 20.2496C24.4994 19.2388 24.2547 18.2431 23.7867 17.3472C23.3187 16.4513 22.6412 15.6817 21.8119 15.1038C20.9826 14.5259 20.026 14.1569 19.0234 14.0282C18.0209 13.8994 17.002 14.0147 16.0536 14.3643C15.665 14.5075 15.466 14.9387 15.6093 15.3274C15.7525 15.716 16.1837 15.915 16.5724 15.7717Z" fill="#121213"/>
</g>
<defs>
<clipPath id="clip0_3821_18268">
<rect width="24" height="24" fill="white" transform="translate(0.5)"/>
</clipPath>
</defs>
</svg>
