<svg width="24" height="24" viewBox="0 0 24 24" fill="none" xmlns="http://www.w3.org/2000/svg">
<path fill-rule="evenodd" clip-rule="evenodd" d="M12 3.5C11.7239 3.5 11.5 3.72386 11.5 4C11.5 4.72952 11.0442 5.50811 10.1914 5.75452C7.48024 6.53792 5.5 9.03965 5.5 12V14C5.5 14.7325 5.18017 15.3107 4.84079 15.7064C4.50796 16.0945 4.10557 16.3718 3.7613 16.5602C3.60235 16.6472 3.5 16.8127 3.5 17C3.5 17.2761 3.72386 17.5 4 17.5H20C20.2761 17.5 20.5 17.2761 20.5 17C20.5 16.8127 20.3976 16.6472 20.2387 16.5602C19.8944 16.3718 19.492 16.0945 19.1592 15.7064C18.8198 15.3107 18.5 14.7325 18.5 14V12C18.5 9.03965 16.5198 6.53792 13.8086 5.75452C12.9558 5.50811 12.5 4.72953 12.5 4C12.5 3.72386 12.2761 3.5 12 3.5ZM10 4C10 2.89543 10.8954 2 12 2C13.1046 2 14 2.89543 14 4C14 4.1422 14.0883 4.274 14.225 4.31347C17.5607 5.27734 20 8.3538 20 12V14C20 14.5523 20.4745 14.9793 20.959 15.2445C21.5793 15.5841 22 16.2429 22 17C22 18.1046 21.1046 19 20 19H4C2.89543 19 2 18.1046 2 17C2 16.2429 2.42067 15.5841 3.04103 15.2445C3.52548 14.9793 4 14.5523 4 14V12C4 8.3538 6.43931 5.27734 9.77504 4.31347C9.91165 4.274 10 4.1422 10 4Z" fill="#212121"/>
<path fill-rule="evenodd" clip-rule="evenodd" d="M13.1181 20C12.8434 20.3069 12.4443 20.5 12 20.5C11.5558 20.5 11.1566 20.3069 10.882 20H9.17072C9.58255 21.1652 10.6938 22 12 22C13.3062 22 14.4175 21.1652 14.8293 20H13.1181Z" fill="#212121"/>
</svg>
