<svg width="370" height="370" viewBox="0 0 370 370" fill="none"
	 xmlns="http://www.w3.org/2000/svg">
	<circle cx="185" cy="185" r="185" fill="#E32359"/>
	<circle cx="185" cy="185" r="185" fill="#E32359"/>
	<path
		d="M245.439 249.235C243.396 236.003 219.23 246.207 217.738 231.71C215.627 211.139 245.798 166.805 243.417 149.593C241.279 134.099 230.98 130.852 222.019 130.693C213.314 130.534 211.014 131.941 208.072 133.675C206.374 134.673 203.935 136.649 200.549 133.384C198.298 131.212 196.812 129.692 194.431 127.766C193.219 126.782 191.287 125.544 188.053 125.061C184.814 124.578 180.623 125.061 177.96 126.217C175.292 127.378 173.199 129.404 171.007 131.335C168.819 133.266 163.263 139.572 158.084 137.245C155.838 136.239 148.233 132.387 142.745 129.978C132.149 125.329 116.868 132.861 111.366 142.778C103.177 157.53 87.0112 215.492 84.5633 223.137C79.0745 240.303 91.5209 254.295 108.307 253.489C115.404 253.147 120.124 250.519 124.607 242.256C127.199 237.484 151.535 173.042 153.345 169.951C154.657 167.711 159.036 164.751 162.751 166.682C166.461 168.612 167.202 172.637 166.655 176.43C165.765 182.563 148.602 221.875 147.942 226.324C146.823 233.886 150.367 238.094 158.111 238.503C163.42 238.79 168.707 236.855 172.907 228.828C175.256 224.338 202.323 169.385 204.717 165.716C207.349 161.691 209.466 160.366 212.147 160.507C214.226 160.612 217.555 161.153 216.724 167.473C215.907 173.67 194.144 213.993 191.862 223.869C188.808 237.068 195.954 250.437 207.727 256.288C215.237 260.018 248.089 266.41 245.439 249.235Z"
		fill="white"/>
	<path
		d="M292.667 189.37H276.82C276.305 189.37 275.887 188.925 275.887 188.376V171.472C275.887 168.726 273.8 166.5 271.226 166.5C268.652 166.5 266.566 168.726 266.566 171.472V188.376C266.566 188.925 266.148 189.37 265.633 189.37H249.786C247.212 189.37 245.125 191.596 245.125 194.342C245.125 197.087 247.212 199.313 249.786 199.313H265.633C266.148 199.313 266.566 199.759 266.566 200.308V217.211C266.566 219.957 268.652 222.183 271.226 222.183C273.8 222.183 275.887 219.957 275.887 217.211V200.308C275.887 199.759 276.305 199.313 276.82 199.313H292.667C295.241 199.313 297.328 197.087 297.328 194.342C297.328 191.596 295.241 189.37 292.667 189.37Z"
		fill="white"/>
</svg>
