<svg width="24" height="24" viewBox="0 0 24 24" fill="none" xmlns="http://www.w3.org/2000/svg">
<path fill-rule="evenodd" clip-rule="evenodd" d="M5.5 16.5L5.5 19.8791L9.72383 16.5H20C20.2761 16.5 20.5 16.2761 20.5 16V6C20.5 5.72386 20.2761 5.5 20 5.5H4C3.72386 5.5 3.5 5.72386 3.5 6V16C3.5 16.2761 3.72386 16.5 4 16.5H5.5ZM4.68765 20.5289C4.68744 20.5291 4.68786 20.5288 4.68765 20.5289V20.5289ZM4 18C2.89543 18 2 17.1046 2 16V6C2 4.89543 2.89543 4 4 4H20C21.1046 4 22 4.89543 22 6V16C22 17.1046 21.1046 18 20 18H10.25L5.6247 21.7002C4.96993 22.2241 4 21.7579 4 20.9194L4 18Z" fill="#212121"/>
</svg>
