<?xml version="1.0" encoding="utf-8"?>
<!-- Generator: Adobe Illustrator 16.0.0, SVG Export Plug-In . SVG Version: 6.00 Build 0)  -->
<!DOCTYPE svg PUBLIC "-//W3C//DTD SVG 1.1//EN" "http://www.w3.org/Graphics/SVG/1.1/DTD/svg11.dtd">
<svg version="1.1" id="Chevron_left" xmlns="http://www.w3.org/2000/svg" xmlns:xlink="http://www.w3.org/1999/xlink" x="0px"
	 y="0px" width="792px" height="1224px" viewBox="0 0 792 1224" enable-background="new 0 0 792 1224" xml:space="preserve">
<path d="M593.507,567.464c-2.363-0.079-171.235-0.215-289.152-0.3l105.393-109.921c19.047-21.106,17.661-45.144,0-62.41
	c-17.622-17.266-47.401-16.196-63.954,0C329.24,410.99,167.514,580.756,167.514,580.756c-8.831,8.672-13.266,19.958-13.266,31.244
	s4.435,22.572,13.266,31.165c0,0,161.727,169.845,178.279,185.922c16.553,16.157,46.332,17.266,63.954,0
	c17.661-17.146,19.047-41.224,0-62.33L304.338,656.819h288.345c28.418-0.848,44.816-18.477,45.066-43.175
	C638.026,588.976,616.652,568.212,593.507,567.464z"/>
</svg>
