<?xml version="1.0" encoding="utf-8"?>
<!-- Generator: Adobe Illustrator 16.0.0, SVG Export Plug-In . SVG Version: 6.00 Build 0)  -->
<!DOCTYPE svg PUBLIC "-//W3C//DTD SVG 1.1//EN" "http://www.w3.org/Graphics/SVG/1.1/DTD/svg11.dtd">
<svg version="1.1" id="Layer_1" xmlns:sketch="http://www.bohemiancoding.com/sketch/ns"
	 xmlns="http://www.w3.org/2000/svg" xmlns:xlink="http://www.w3.org/1999/xlink" x="0px" y="0px" width="24px" height="27px"
	 viewBox="0 0 24 27" enable-background="new 0 0 24 27" xml:space="preserve">
<title>Imported Layers</title>
<desc>Created with Sketch.</desc>
<g id="As-Is" sketch:type="MSPage">
	<path id="_x36__x5F_ghome-2" transform="translate(-148.000000, -10.000000)" sketch:type="MSArtboardGroup" d="M152.895,21.938
		h2.226v2.261h-2.226V21.938z M152.895,25.699h2.238v2.238h-2.238V25.699z M152.895,29.426h2.226v2.272h-2.226V29.426z
		 M156.62,21.938h2.25v2.261h-2.25V21.938z M156.632,25.699h2.238v2.238h-2.238V25.699z M156.62,29.426h2.25v2.272h-2.25V29.426z
		 M160.357,21.938h2.272v2.261h-2.272V21.938z M160.357,25.699h2.284v2.238h-2.284V25.699z M160.357,29.426h2.272v2.272h-2.272
		V29.426z M164.118,21.938h2.25v2.261h-2.25V21.938z M164.13,25.699h2.238v2.238h-2.238V25.699z M170.714,12.941h-4.346
		l-0.023-1.921c-0.012-0.727-0.141-1.02-1.418-1.02s-1.559,0.293-1.559,1.02l0.012,1.921h-7.498l0.012-1.921
		c0-0.727-0.164-1.02-1.417-1.02c-1.277,0-1.546,0.293-1.558,1.02l-0.023,1.921h-3.608c-0.492,0-0.914,0.234-0.914,0.726v23.269
		h23.256V13.667C171.628,13.175,171.218,12.941,170.714,12.941L170.714,12.941z M149.883,18.189h20.246v17.258h-20.246V18.189z"/>
</g>
</svg>
