<?xml version="1.0" encoding="utf-8"?>
<!-- Generator: Adobe Illustrator 16.0.0, SVG Export Plug-In . SVG Version: 6.00 Build 0)  -->
<!DOCTYPE svg PUBLIC "-//W3C//DTD SVG 1.1//EN" "http://www.w3.org/Graphics/SVG/1.1/DTD/svg11.dtd">
<svg version="1.1" id="Layer_1" xmlns:sketch="http://www.bohemiancoding.com/sketch/ns"
	 xmlns="http://www.w3.org/2000/svg" xmlns:xlink="http://www.w3.org/1999/xlink" x="0px" y="0px" width="26px" height="24px"
	 viewBox="0 0 26 24" enable-background="new 0 0 26 24" xml:space="preserve">
<title>Imported Layers</title>
<desc>Created with Sketch.</desc>
<path id="As-Is" sketch:type="MSPage" d="M25.501,9.293c-0.075-0.021-7.796-2.02-10.377-3.14l-0.063-0.032l-0.031-0.063l-1.541-3.14
	c-0.085-0.169-0.234-0.296-0.425-0.349c-1.349-0.37-3.017-0.561-4.96-0.571c-2.315-0.021-4.418,0.222-5.47,0.36L2.496,2.379
	L2.358,2.104L2.315,2.009l0.053-0.095C2.496,1.713,2.57,1.491,2.57,1.269c0-0.338-0.127-0.655-0.372-0.888
	C1.954,0.138,1.636,0,1.296,0C1.094,0,0.903,0.042,0.722,0.127C0.51,0.232,0.329,0.381,0.202,0.582S0,1.015,0,1.248
	C0,1.533,0.096,1.808,0.276,2.03c0.18,0.222,0.425,0.381,0.701,0.444l0.085,0.021L1.104,2.58l9.24,19.063l0.106,0.232l-0.255,0.042
	c-0.797,0.116-1.551,0.328-2.22,0.655c-0.499,0.232-0.817,0.466-0.945,0.571v0.804L16.006,24l0.01-0.804
	c-0.127-0.095-0.445-0.338-0.944-0.581c-0.382-0.19-0.808-0.35-1.243-0.477c-0.552-0.158-1.136-0.254-1.731-0.295l-0.117-0.012
	l-0.042-0.095l-4.801-9.79l-0.106-0.222l0.233-0.053c0.489-0.095,1.073-0.18,1.742-0.222c0.659-0.053,1.413-0.074,2.23-0.063
	c0.351,0,0.733,0.011,1.158,0.021l0.159,0.01l0.021,0.148c0.191,1.131,0.584,3.161,1.104,4.081l0.011,0.011v0.011
	c0.063,0.158,0.159,0.285,0.286,0.392c0.107,0.084,0.298,0.189,0.596,0.189c0.287,0.011,0.945-0.148,2.517-0.898
	c2.698-1.29,6.542-3.595,8.593-4.863c0.233-0.138,0.35-0.392,0.308-0.656C25.947,9.579,25.756,9.367,25.501,9.293L25.501,9.293z
	 M11.237,10.065c-0.913,0-1.784,0.031-2.581,0.105c-0.754,0.074-1.423,0.169-1.986,0.307l-0.148,0.032l-0.064-0.137L3.261,3.859
	L3.144,3.616l0.266-0.032c1.126-0.127,2.857-0.285,4.684-0.275c1.646,0.011,3.069,0.159,4.227,0.423l0.096,0.021l0.032,0.084
	l2.167,4.43l0.797,1.724l0.138,0.296l-0.329-0.021C14.254,10.182,12.766,10.076,11.237,10.065L11.237,10.065z M23.271,10.403
	c-2.825,1.692-5.47,3.151-7.073,3.923c-0.234,0.116-0.446,0.211-0.627,0.285l-0.521,0.232l0.276-0.496
	c0.436-0.772,1.179-1.83,1.954-2.76c0.159-0.19,0.19-0.455,0.096-0.677L17.365,10.9v-0.021c-0.011-0.011-0.011-0.021-0.011-0.032
	c-0.011-0.021-0.021-0.042-0.021-0.063l-1.201-2.453L15.941,7.93l0.426,0.137c2.177,0.708,4.928,1.47,6.861,1.988l0.436,0.116
	L23.271,10.403L23.271,10.403z"/>
</svg>
