<?xml version="1.0" encoding="utf-8"?>
<!-- Generator: Adobe Illustrator 16.0.0, SVG Export Plug-In . SVG Version: 6.00 Build 0)  -->
<!DOCTYPE svg PUBLIC "-//W3C//DTD SVG 1.1//EN" "http://www.w3.org/Graphics/SVG/1.1/DTD/svg11.dtd">
<svg version="1.1" id="Layer_1" xmlns:sketch="http://www.bohemiancoding.com/sketch/ns"
	 xmlns="http://www.w3.org/2000/svg" xmlns:xlink="http://www.w3.org/1999/xlink" x="0px" y="0px" width="26px" height="24px"
	 viewBox="0 0 26 24" enable-background="new 0 0 26 24" xml:space="preserve">
<title>Imported Layers</title>
<desc>Created with Sketch.</desc>
<path id="As-Is" sketch:type="MSPage" d="M17.131,10.055c0,0.246-0.204,0.445-0.469,0.445H8.178c-0.264,0-0.48-0.199-0.48-0.445
	V9.445C7.697,9.199,7.914,9,8.178,9h8.484c0.265,0,0.469,0.199,0.469,0.445V10.055L17.131,10.055z M20.279,13.055
	c0,0.246-0.216,0.445-0.469,0.445H8.178c-0.264,0-0.48-0.199-0.48-0.445v-0.609c0-0.246,0.216-0.445,0.48-0.445h11.633
	c0.253,0,0.469,0.199,0.469,0.445V13.055L20.279,13.055z M15.557,16.055c0,0.246-0.204,0.445-0.469,0.445h-6.91
	c-0.264,0-0.48-0.199-0.48-0.445v-0.609c0-0.246,0.216-0.445,0.48-0.445h6.91c0.265,0,0.469,0.199,0.469,0.445V16.055L15.557,16.055
	z M13.417,0C6.471,0,0.847,5.367,0.847,12c0,1.641,0.757,3.902,0.757,3.902c0.132,0.387,0.144,1.043,0.024,1.43L0.03,22.57
	c-0.12,0.398,0.132,0.68,0.565,0.621l5.853-0.68c0.433-0.047,1.105,0.047,1.502,0.199c0,0,3.208,1.289,5.468,1.289
	C20.363,24,26,18.633,26,12S20.363,0,13.417,0L13.417,0z"/>
</svg>
